<svg xmlns="http://www.w3.org/2000/svg" width="18.022" height="20.8" viewBox="0 0 18.022 20.8">
  <path id="address-book" d="M17.54,6.5a.487.487,0,0,0,.483-.487V4.387A.487.487,0,0,0,17.54,3.9h-.8V1.95A1.941,1.941,0,0,0,14.8,0H1.931A1.941,1.941,0,0,0,0,1.95v16.9A1.941,1.941,0,0,0,1.931,20.8H14.8a1.941,1.941,0,0,0,1.931-1.95V16.9h.8a.487.487,0,0,0,.483-.487V14.787a.487.487,0,0,0-.483-.487h-.8V11.7h.8a.487.487,0,0,0,.483-.488V9.587A.487.487,0,0,0,17.54,9.1h-.8V6.5ZM14.8,18.85H1.931V1.95H14.8ZM8.368,10.4A2.6,2.6,0,1,0,5.793,7.8,2.59,2.59,0,0,0,8.368,10.4Zm-3.6,5.2h7.209a.847.847,0,0,0,.9-.78v-.78a2.542,2.542,0,0,0-2.7-2.34,9.628,9.628,0,0,1-1.8.325,9.488,9.488,0,0,1-1.8-.325,2.542,2.542,0,0,0-2.7,2.34v.78A.847.847,0,0,0,4.763,15.6Z" fill="#707070"/>
</svg>
