<svg xmlns="http://www.w3.org/2000/svg" width="20.904" height="21" viewBox="0 0 20.904 21">
  <path id="building" d="M20.344,19.688h-.933V.984A1.059,1.059,0,0,0,18.291,0H2.613a1.059,1.059,0,0,0-1.12.984v18.7H.56A.529.529,0,0,0,0,20.18V21H20.9v-.82A.529.529,0,0,0,20.344,19.688ZM5.973,3.117a.529.529,0,0,1,.56-.492H8.4a.529.529,0,0,1,.56.492V4.758a.529.529,0,0,1-.56.492H6.532a.529.529,0,0,1-.56-.492Zm0,3.938a.529.529,0,0,1,.56-.492H8.4a.529.529,0,0,1,.56.492V8.7a.529.529,0,0,1-.56.492H6.532a.529.529,0,0,1-.56-.492ZM8.4,13.125H6.532a.529.529,0,0,1-.56-.492V10.992a.529.529,0,0,1,.56-.492H8.4a.529.529,0,0,1,.56.492v1.641A.529.529,0,0,1,8.4,13.125Zm3.546,6.563H8.959V16.242a.529.529,0,0,1,.56-.492h1.866a.529.529,0,0,1,.56.492Zm2.986-7.055a.529.529,0,0,1-.56.492H12.5a.529.529,0,0,1-.56-.492V10.992a.529.529,0,0,1,.56-.492h1.866a.529.529,0,0,1,.56.492Zm0-3.937a.529.529,0,0,1-.56.492H12.5a.529.529,0,0,1-.56-.492V7.055a.529.529,0,0,1,.56-.492h1.866a.529.529,0,0,1,.56.492Zm0-3.938a.529.529,0,0,1-.56.492H12.5a.529.529,0,0,1-.56-.492V3.117a.529.529,0,0,1,.56-.492h1.866a.529.529,0,0,1,.56.492Z" fill="#707070"/>
</svg>
