<svg width="14" height="14" viewBox="0 0 14 14" fill="none" xmlns="http://www.w3.org/2000/svg">
<path d="M4.07466 4.78179C3.97703 4.68416 3.97703 4.52587 4.07466 4.42824L4.42821 4.07469C4.52584 3.97706 4.68413 3.97706 4.78176 4.07469L6.99997 6.2929L9.21671 4.07615C9.31434 3.97852 9.47263 3.97852 9.57026 4.07615L9.92382 4.42971C10.0214 4.52734 10.0214 4.68563 9.92382 4.78326L7.70708 7L9.92527 9.2182C10.0229 9.31583 10.0229 9.47412 9.92527 9.57176L9.57172 9.92531C9.47409 10.0229 9.3158 10.0229 9.21817 9.92531L6.99997 7.70711L4.78324 9.92384C4.68561 10.0215 4.52732 10.0215 4.42969 9.92384L4.07613 9.57029C3.9785 9.47266 3.9785 9.31437 4.07613 9.21673L6.29286 7L4.07466 4.78179Z" fill="#2B2C30"/>
<path fill-rule="evenodd" clip-rule="evenodd" d="M11.9576 11.9419C13.2197 10.6758 14 8.92902 14 7C14 5.07098 13.2197 3.32421 11.9576 2.05808C10.6902 0.786729 8.93697 0 7 0C5.06303 0 3.3098 0.786729 2.04244 2.05808C0.780281 3.32421 0 5.07098 0 7C0 8.92902 0.780281 10.6758 2.04244 11.9419C3.3098 13.2133 5.06303 14 7 14C8.93698 14 10.6902 13.2133 11.9576 11.9419ZM11.2426 11.2426C12.3284 10.1569 13 8.65685 13 7C13 5.34315 12.3284 3.84315 11.2426 2.75736C10.1569 1.67157 8.65685 1 7 1C5.34315 1 3.84315 1.67157 2.75736 2.75736C1.67157 3.84315 1 5.34315 1 7C1 8.65685 1.67157 10.1569 2.75736 11.2426C3.84315 12.3284 5.34315 13 7 13C8.65686 13 10.1569 12.3284 11.2426 11.2426Z" fill="#2B2C30"/>
</svg>
