<svg width="12" height="15" viewBox="0 0 12 15" fill="none" xmlns="http://www.w3.org/2000/svg">
<path d="M3 3.5H4V0.5H0V9.5C0 9.76375 0.102107 10.0036 0.268948 10.1823C0.451469 10.3778 0.711464 10.5 1 10.5H3V3.5Z" fill="#0054AE"/>
<path d="M5.25 3.5C5.11193 3.5 5 3.38807 5 3.25V0.5L8 3.5H5.25Z" fill="#0054AE"/>
<path d="M12 13.5V8.5H9C8.44772 8.5 8 8.05228 8 7.5V4.5H4V13.5C4 13.7637 4.10211 14.0036 4.26895 14.1823C4.45147 14.3778 4.71146 14.5 5 14.5H11C11.2885 14.5 11.5485 14.3778 11.7311 14.1823C11.8979 14.0036 12 13.7637 12 13.5Z" fill="#0054AE"/>
<path d="M9.25 7.5C9.11193 7.5 9 7.38807 9 7.25V4.5L12 7.5H9.25Z" fill="#0054AE"/>
</svg>
