<svg xmlns="http://www.w3.org/2000/svg" width="20.4" height="18" viewBox="0 0 20.4 18">
  <path id="comments" d="M14.733,38.429c0-3.552-3.3-6.429-7.367-6.429S0,34.877,0,38.429a5.851,5.851,0,0,0,1.346,3.7,9.182,9.182,0,0,1-1.268,2.19.352.352,0,0,0-.053.35.279.279,0,0,0,.259.193,5.7,5.7,0,0,0,3.141-1,8.138,8.138,0,0,0,3.942,1C11.436,44.857,14.733,41.98,14.733,38.429Zm4.321,8.839a5.842,5.842,0,0,0,1.346-3.7,6.5,6.5,0,0,0-4.579-5.95,6.762,6.762,0,0,1,.046.808c0,4.255-3.814,7.714-8.5,7.714a9.376,9.376,0,0,1-1.123-.076A7.452,7.452,0,0,0,13.033,50a8.093,8.093,0,0,0,3.942-1,5.7,5.7,0,0,0,3.141,1,.281.281,0,0,0,.259-.193.355.355,0,0,0-.053-.35A9.084,9.084,0,0,1,19.054,47.268Z" transform="translate(0 -32)" fill="#707070"/>
</svg>
