<svg xmlns="http://www.w3.org/2000/svg" width="20.3" height="20.1" viewBox="0 0 20.3 20.1">
  <path id="compass" d="M9.224,17.133a1.287,1.287,0,0,0,0,1.834,1.318,1.318,0,0,0,1.852,0,1.287,1.287,0,0,0,0-1.834A1.319,1.319,0,0,0,9.224,17.133ZM10.15,8A10.05,10.05,0,1,0,20.3,18.05,10.1,10.1,0,0,0,10.15,8Zm5.163,6-2.7,5.85a1.3,1.3,0,0,1-.645.639L6.06,23.162A.805.805,0,0,1,4.987,22.1l2.7-5.85a1.3,1.3,0,0,1,.645-.639l5.907-2.673A.805.805,0,0,1,15.312,14Z" transform="translate(0 -8)" fill="#707070"/>
</svg>
