<svg width="24" height="24" viewBox="0 0 24 24" fill="none" xmlns="http://www.w3.org/2000/svg">
<path fill-rule="evenodd" clip-rule="evenodd" d="M19.8573 2H4.143C3.74851 2 3.42871 2.3198 3.42871 2.71429V21.2857C3.42871 21.6802 3.74851 22 4.143 22H14.7716C14.959 21.9992 15.1385 21.9248 15.2716 21.7929L20.3573 16.75C20.4936 16.6164 20.5708 16.4337 20.5716 16.2429V2.71429C20.5716 2.3198 20.2518 2 19.8573 2ZM4.85718 3.42861H19.1429V15.5715H14.8572C14.4627 15.5715 14.1429 15.8913 14.1429 16.2858L14.0643 20.5715H4.85718V3.42861ZM15.5144 19.5714L18.1073 17H15.5715L15.5144 19.5714Z" fill="#555555"/>
<rect x="2" y="4.85742" width="20" height="7.85714" rx="1" fill="#15844A"/>
<path d="M8.19786 6.63477C6.94072 6.63477 6.16357 7.59477 6.16357 8.76048C6.16357 10.0233 7.03786 10.8862 8.19786 10.8862C9.255 10.8862 9.99786 10.2519 10.0607 9.21762H8.99786C8.94643 9.72619 8.64357 9.97191 8.175 9.97191C7.575 9.97191 7.22643 9.48619 7.22643 8.76048C7.22643 8.03477 7.575 7.54905 8.175 7.54905C8.62072 7.54905 8.92929 7.75477 8.99786 8.17762H10.0607C10.0207 7.17762 9.07215 6.63477 8.19786 6.63477Z" fill="white"/>
<path d="M12.1681 6.63477C11.3509 6.63477 10.5109 7.02334 10.5109 7.87477C10.5109 8.18334 10.6138 8.42334 10.8195 8.62334C11.0309 8.82334 11.3738 8.97762 11.9909 9.12619C12.4709 9.24048 12.8767 9.34905 12.8767 9.64619C12.8767 9.90905 12.6138 10.0633 12.2195 10.0633C11.7167 10.0633 11.4767 9.86334 11.4538 9.42905H10.3909C10.3909 10.3719 11.0995 10.8862 12.1624 10.8862C13.2481 10.8862 13.9395 10.4233 13.9395 9.52048C13.9395 8.88619 13.5167 8.61191 13.0252 8.42905C12.8252 8.35477 12.5795 8.29762 12.2995 8.22905C11.7738 8.10334 11.5738 7.99477 11.5738 7.80619C11.5738 7.58334 11.7795 7.45762 12.0881 7.45762C12.4709 7.45762 12.7452 7.61191 12.7452 7.91477V7.94905H13.8081V7.93191C13.8081 7.14334 13.1281 6.63477 12.1681 6.63477Z" fill="white"/>
<path d="M14.008 6.72048L15.2938 10.8005H16.5166L17.8366 6.72048H16.728L15.928 9.75477H15.9166L15.1166 6.72048H14.008Z" fill="white"/>
</svg>
