<svg xmlns="http://www.w3.org/2000/svg" xmlns:xlink="http://www.w3.org/1999/xlink" width="81.213" height="79.213" viewBox="0 0 81.213 79.213">
  <defs>
    <clipPath id="clip-path">
      <rect id="Rectangle_5843" data-name="Rectangle 5843" width="28.521" height="41.33" fill="#168ae0"/>
    </clipPath>
  </defs>
  <g id="Group_13504" data-name="Group 13504" transform="translate(-14609.894 -214.656)">
    <rect id="Rectangle_6606" data-name="Rectangle 6606" width="81.213" height="79.213" rx="39.606" transform="translate(14609.894 214.656)" fill="#cce4f6"/>
    <path id="Path_7389" data-name="Path 7389" d="M177.467,164.774c0-17.492,14.477-31.672,32.336-31.672h0c17.86,0,32.337,14.18,32.337,31.672h0c0,17.492-14.477,31.673-32.337,31.673h0c-17.859,0-32.336-14.181-32.336-31.673Z" transform="translate(14440.696 89.988)" fill="#ccf3fa" stroke="#fff" stroke-width="4"/>
    <g id="Group_13503" data-name="Group 13503" transform="translate(14637.614 233.226)">
      <g id="Group_13208" data-name="Group 13208" clip-path="url(#clip-path)">
        <path id="Path_7217" data-name="Path 7217" d="M3.624,25.821h2.9v2.642h-2.9a1.137,1.137,0,0,0-.8.334.611.611,0,0,0-.047.046h0a1.352,1.352,0,0,0-.35.914v30.6a1.356,1.356,0,0,0,.308.865.6.6,0,0,0,.042.051h0a1.145,1.145,0,0,0,.841.38H24.9a1.137,1.137,0,0,0,.8-.334.61.61,0,0,0,.047-.046h0a1.352,1.352,0,0,0,.35-.914v-30.6a1.356,1.356,0,0,0-.308-.865c-.013-.018-.027-.035-.042-.051h0a1.145,1.145,0,0,0-.841-.38h-2.9V25.821h2.9a3.476,3.476,0,0,1,2.56,1.156,4.1,4.1,0,0,1,1.064,2.782v30.6a4.1,4.1,0,0,1-1.064,2.782A3.476,3.476,0,0,1,24.9,64.3H3.624a3.476,3.476,0,0,1-2.56-1.156A4.1,4.1,0,0,1,0,60.363v-30.6a4.1,4.1,0,0,1,1.064-2.782,3.476,3.476,0,0,1,2.56-1.156" transform="translate(0 -22.971)" fill="#168ae0"/>
        <path id="Path_7218" data-name="Path 7218" d="M82.179,8.342H72.147a2.045,2.045,0,0,1-1.506-.68,2.414,2.414,0,0,1-.626-1.637V2.316A2.415,2.415,0,0,1,70.641.679,2.045,2.045,0,0,1,72.147,0H82.179a2.045,2.045,0,0,1,1.506.68,2.415,2.415,0,0,1,.626,1.637V6.025a2.415,2.415,0,0,1-.626,1.637,2.045,2.045,0,0,1-1.506.68" transform="translate(-62.903 0.001)" fill="#168ae0"/>
        <path id="Path_7219" data-name="Path 7219" d="M51.265,118.344a.638.638,0,0,0,0,1.272h9.573a.638.638,0,0,0,0-1.272Z" transform="translate(-45.532 -105.28)" fill="#168ae0"/>
        <path id="Path_7220" data-name="Path 7220" d="M51.265,177.179a.638.638,0,0,0,0,1.272h9.573a.638.638,0,0,0,0-1.272Z" transform="translate(-45.532 -157.62)" fill="#168ae0"/>
        <path id="Path_7221" data-name="Path 7221" d="M51.265,236.015a.638.638,0,0,0,0,1.272h9.573a.638.638,0,0,0,0-1.272Z" transform="translate(-45.532 -209.961)" fill="#168ae0"/>
        <path id="Path_7222" data-name="Path 7222" d="M51.265,294.85a.638.638,0,0,0,0,1.272h9.573a.638.638,0,0,0,0-1.272Z" transform="translate(-45.532 -262.301)" fill="#168ae0"/>
        <path id="Path_7223" data-name="Path 7223" d="M187.384,162.72h2.938a.612.612,0,0,1,.585.636v3.192a.612.612,0,0,1-.585.636h-2.938a.612.612,0,0,1-.585-.636v-3.192a.612.612,0,0,1,.585-.636" transform="translate(-167.824 -144.757)" fill="#168ae0"/>
        <path id="Path_7224" data-name="Path 7224" d="M187.384,221.555h2.938a.612.612,0,0,1,.585.636v3.192a.612.612,0,0,1-.585.636h-2.938a.612.612,0,0,1-.585-.636v-3.192a.612.612,0,0,1,.585-.636" transform="translate(-167.824 -197.097)" fill="#168ae0"/>
        <path id="Path_7225" data-name="Path 7225" d="M185.05,287.645a.558.558,0,0,0-.8-.234.664.664,0,0,0-.215.864l.769,1.448.505-.315-.507.318a.56.56,0,0,0,.8.233l.034-.023,2.716-1.7a.665.665,0,0,0,.213-.867.559.559,0,0,0-.8-.231l-2.245,1.408Z" transform="translate(-165.275 -255.361)" fill="#168ae0"/>
        <path id="Path_7226" data-name="Path 7226" d="M185.05,111.138a.558.558,0,0,0-.8-.233.664.664,0,0,0-.215.864l.769,1.448.505-.315-.507.318a.561.561,0,0,0,.8.233l.034-.023,2.716-1.7a.665.665,0,0,0,.213-.867.559.559,0,0,0-.8-.231l-2.245,1.408Z" transform="translate(-165.275 -98.338)" fill="#168ae0"/>
      </g>
    </g>
  </g>
</svg>
