<svg width="16" height="15" viewBox="0 0 16 15" fill="none" xmlns="http://www.w3.org/2000/svg">
<path fill-rule="evenodd" clip-rule="evenodd" d="M12.7784 13.281C14.4408 11.9054 15.5 9.82638 15.5 7.5C15.5 5.17362 14.4408 3.09464 12.7784 1.71898C11.4808 0.645256 9.81576 0 8 0C6.18424 0 4.51919 0.645256 3.22163 1.71898C1.55919 3.09464 0.5 5.17362 0.5 7.5C0.5 9.82638 1.55919 11.9054 3.22163 13.281C4.51919 14.3547 6.18424 15 8 15C9.81576 15 11.4808 14.3547 12.7784 13.281ZM4.07517 4.63582C3.97754 4.53819 3.97754 4.3799 4.07517 4.28227L4.78228 3.57516C4.87991 3.47753 5.0382 3.47753 5.13583 3.57516L8.00002 6.43935L10.8642 3.57516C10.9618 3.47753 11.1201 3.47753 11.2178 3.57516L11.9249 4.28227C12.0225 4.3799 12.0225 4.53819 11.9249 4.63582L9.06068 7.50001L11.9177 10.357C12.0153 10.4547 12.0153 10.613 11.9177 10.7106L11.2106 11.4177C11.113 11.5153 10.9547 11.5153 10.8571 11.4177L8.00002 8.56067L5.13722 11.4235C5.03959 11.5211 4.8813 11.5211 4.78367 11.4235L4.07656 10.7164C3.97893 10.6187 3.97893 10.4604 4.07656 10.3628L6.93936 7.50001L4.07517 4.63582Z" fill="#0054AE"/>
</svg>
