<svg width="17" height="22" viewBox="0 0 17 22" fill="none" xmlns="http://www.w3.org/2000/svg">
<path fill-rule="evenodd" clip-rule="evenodd" d="M16.0966 21.0235C16.3468 20.7555 16.5 20.3956 16.5 20V5L12 0.5H0.375C0.167893 0.5 0 0.667893 0 0.875V20C0 20.3956 0.153161 20.7555 0.403422 21.0235C0.677204 21.3167 1.0672 21.5 1.5 21.5H15C15.4328 21.5 15.8228 21.3167 16.0966 21.0235ZM10.5 5V2.75H2.25V19.25H14.25V6.5H12C11.5858 6.5 11.2108 6.33211 10.9394 6.06067C10.6679 5.78923 10.5 5.41422 10.5 5Z" fill="#0054AE"/>
</svg>