<svg width="13" height="14" viewBox="0 0 13 14" fill="none" xmlns="http://www.w3.org/2000/svg">
<path d="M5.58603 9.50213L5.79314 9.29502L4.20711 7.70899L4 7.9161L4 9.50213H5.58603Z" fill="#0054AE"/>
<path d="M4.91421 7.00189L6.50024 8.58792L12.8233 2.26491C12.9209 2.16729 12.9209 2.00902 12.8233 1.91139L11.591 0.678719C11.4934 0.581062 11.3351 0.581051 11.2374 0.678692L4.91421 7.00189Z" fill="#0054AE"/>
<path d="M9 1.50189L3.07322 7.42866C3.02634 7.47555 3 7.53914 3 7.60544L3 10.2521C3 10.3902 3.11193 10.5021 3.25 10.5021H5.89669C5.963 10.5021 6.02658 10.4758 6.07347 10.4289L12 4.50238V13.2519C12 13.39 11.8881 13.5019 11.75 13.5019H0.25C0.111929 13.5019 0 13.39 0 13.2519V1.75189C0 1.61382 0.111929 1.50189 0.25 1.50189H9Z" fill="#0054AE"/>
</svg>
