<svg xmlns="http://www.w3.org/2000/svg" width="18.339" height="14.355" viewBox="0 0 18.339 14.355">
  <path id="envelope" d="M17.992,68.74a.215.215,0,0,1,.347.176v7.645a1.758,1.758,0,0,1-1.719,1.794H1.719A1.758,1.758,0,0,1,0,76.561V68.92a.214.214,0,0,1,.347-.176c.8.65,1.866,1.477,5.52,4.247.756.576,2.031,1.787,3.3,1.779,1.279.011,2.579-1.226,3.306-1.779C16.129,70.22,17.19,69.391,17.992,68.74ZM9.17,73.57c.831.015,2.027-1.092,2.629-1.548,4.753-3.6,5.115-3.914,6.211-4.811a.909.909,0,0,0,.33-.707v-.71A1.758,1.758,0,0,0,16.62,64H1.719A1.758,1.758,0,0,0,0,65.794v.71a.915.915,0,0,0,.33.707c1.1.893,1.458,1.211,6.211,4.811C7.142,72.478,8.339,73.585,9.17,73.57Z" transform="translate(0 -64)" fill="#707070"/>
</svg>
