<svg xmlns="http://www.w3.org/2000/svg" width="22.229" height="22" viewBox="0 0 22.229 22">
  <path id="globe" d="M15.084,14.742C14.434,10.781,12.9,8,11.117,8S7.8,10.781,7.15,14.742ZM6.814,19a27.511,27.511,0,0,0,.148,2.839h8.306A27.511,27.511,0,0,0,15.416,19a27.511,27.511,0,0,0-.148-2.839H6.962A27.511,27.511,0,0,0,6.814,19Zm14.555-4.258a11.1,11.1,0,0,0-7.083-6.281,14.87,14.87,0,0,1,2.241,6.281ZM7.943,8.461A11.093,11.093,0,0,0,.865,14.742H5.706A14.81,14.81,0,0,1,7.943,8.461Zm13.905,7.7H16.707A28.32,28.32,0,0,1,16.855,19a28.32,28.32,0,0,1-.148,2.839h5.137A10.8,10.8,0,0,0,22.229,19a10.986,10.986,0,0,0-.381-2.839ZM5.379,19a28.32,28.32,0,0,1,.148-2.839H.386a10.644,10.644,0,0,0,0,5.677H5.523C5.433,20.907,5.379,19.954,5.379,19ZM7.15,23.258C7.8,27.219,9.333,30,11.117,30s3.317-2.781,3.967-6.742Zm7.141,6.281a11.111,11.111,0,0,0,7.083-6.281H16.532A14.87,14.87,0,0,1,14.291,29.539ZM.865,23.258a11.1,11.1,0,0,0,7.083,6.281,14.87,14.87,0,0,1-2.241-6.281H.865Z" transform="translate(0 -8)" fill="#707070"/>
</svg>
