<svg xmlns="http://www.w3.org/2000/svg" width="25.35" height="22.805" viewBox="0 0 25.35 22.805">
  <g id="Group_12904" data-name="Group 12904" transform="translate(-9047 -518.99)">
    <path id="Path_1225" data-name="Path 1225" d="M9072.352,531.278a1.784,1.784,0,0,1-1.81,1.753,1.888,1.888,0,0,1-1.324-.549l-.488-.477v8.037a1.784,1.784,0,0,1-1.811,1.753h-3.62a1.786,1.786,0,0,1-1.812-1.753v-5.259h-3.62v5.259a1.784,1.784,0,0,1-1.81,1.753h-3.623a1.785,1.785,0,0,1-1.811-1.753v-8.076l-.471.487a1.817,1.817,0,0,1-1.339.577,1.784,1.784,0,0,1-1.812-1.753,1.7,1.7,0,0,1,.487-1.2v-.01c.02-.016.055-.039.072-.054l10.812-10.479c0-.018.018-.033.053-.056a1.842,1.842,0,0,1,2.555.056l10.828,10.484c0,.01.018.026.035.039l.02.016A1.718,1.718,0,0,1,9072.352,531.278Z" transform="translate(-0.002)" fill="#3592D6"/>
  </g>
</svg>
