<svg xmlns="http://www.w3.org/2000/svg" width="15.4" height="18" viewBox="0 0 15.4 18">
  <path id="hourglass-end" d="M14.437,2.25a.909.909,0,0,0,.962-.844V.844A.909.909,0,0,0,14.437,0H.962A.909.909,0,0,0,0,.844v.562a.909.909,0,0,0,.962.844A7,7,0,0,0,5.809,9,7,7,0,0,0,.962,15.75.909.909,0,0,0,0,16.594v.563A.909.909,0,0,0,.962,18H14.437a.909.909,0,0,0,.962-.844v-.562a.909.909,0,0,0-.962-.844A7,7,0,0,0,9.591,9,7,7,0,0,0,14.437,2.25ZM7.7,7.312c-2.317,0-4.171-2.339-4.171-5.062h8.342C11.871,4.99,10.006,7.312,7.7,7.312Z" fill="#707070"/>
</svg>
