<svg width="104" height="41" viewBox="0 0 104 41" fill="none" xmlns="http://www.w3.org/2000/svg">
<path d="M8.6272 1.36719H1.23621V8.75718H8.6272V1.36719Z" fill="#0068B5"/>
<path d="M8.44311 39.8683V13.2538H1.44666V39.8683H8.44311ZM54.9459 40.1313V33.6092C53.9201 33.6092 53.0521 33.5566 52.4209 33.4514C51.6844 33.3462 51.132 33.0832 50.7638 32.715C50.3956 32.3468 50.1588 31.8209 50.0273 31.1371C49.9221 30.4796 49.8695 29.6118 49.8695 28.5598V19.25H54.9459V13.2538H49.8695V2.86577H42.8468V28.6124C42.8468 30.7952 43.0309 32.6361 43.3991 34.1089C43.7673 35.5553 44.3986 36.7388 45.2666 37.6329C46.1346 38.5271 47.2919 39.1583 48.6859 39.5527C50.1062 39.9472 51.8948 40.1313 54.0253 40.1313H54.9459ZM95.1361 39.8683V0.814453H88.1133V39.8683H95.1361ZM36.087 15.8574C34.1406 13.7535 31.4052 12.7016 27.9333 12.7016C26.2499 12.7016 24.7243 13.0434 23.3303 13.7272C21.9626 14.411 20.779 15.3578 19.8584 16.5675L19.4639 17.0672V16.6201V13.2538H12.5463V39.8683H19.5165V25.6932V26.6663C19.5165 26.5085 19.5165 26.3507 19.5165 26.1929C19.5954 23.6945 20.2003 21.8536 21.3576 20.6701C22.5938 19.4078 24.0931 18.7766 25.8028 18.7766C27.828 18.7766 29.3799 19.4078 30.4057 20.6175C31.4052 21.8273 31.9312 23.5367 31.9312 25.7195V25.7721V39.842H39.0066V24.7465C39.0329 20.9594 38.0334 17.9613 36.087 15.8574ZM84.4836 26.5085C84.4836 24.5887 84.1417 22.8003 83.4841 21.1172C82.8002 19.4604 81.8533 17.9876 80.6697 16.7253C79.4598 15.4629 78.0132 14.4899 76.3298 13.7798C74.6465 13.0697 72.779 12.7279 70.7537 12.7279C68.8336 12.7279 67.0187 13.096 65.3354 13.8061C63.652 14.5425 62.1791 15.5155 60.9429 16.7516C59.7066 17.9876 58.7072 19.4604 57.997 21.1435C57.2605 22.8266 56.9186 24.6413 56.9186 26.5611C56.9186 28.4809 57.2605 30.2955 57.9444 31.9787C58.6282 33.6618 59.6014 35.1345 60.8114 36.3706C62.0213 37.6066 63.5205 38.606 65.2565 39.3161C66.9924 40.0524 68.9125 40.4206 70.9641 40.4206C76.9085 40.4206 80.5908 37.7118 82.8002 35.1871L77.7502 31.3475C76.6981 32.6098 74.173 34.3193 71.0167 34.3193C69.044 34.3193 67.4133 33.8722 66.1771 32.9517C64.9408 32.0576 64.0992 30.7952 63.652 29.2436L63.5731 29.0069H84.4836V26.5085ZM63.6257 24.0627C63.6257 22.1166 65.8614 18.724 70.6748 18.6977C75.4881 18.6977 77.7502 22.0903 77.7502 24.0364L63.6257 24.0627Z" fill="black"/>
<path d="M103.132 36.3963C103 36.0807 102.816 35.8177 102.58 35.581C102.343 35.3443 102.08 35.1602 101.764 35.0288C101.449 34.8973 101.107 34.8184 100.765 34.8184C100.397 34.8184 100.081 34.8973 99.7653 35.0288C99.4497 35.1602 99.1866 35.3443 98.9499 35.581C98.7132 35.8177 98.5291 36.0807 98.3976 36.3963C98.266 36.7119 98.1871 37.0538 98.1871 37.3957C98.1871 37.7638 98.266 38.0794 98.3976 38.395C98.5291 38.7106 98.7132 38.9736 98.9499 39.2103C99.1866 39.447 99.4497 39.6311 99.7653 39.7626C100.081 39.894 100.423 39.9729 100.765 39.9729C101.133 39.9729 101.449 39.894 101.764 39.7626C102.08 39.6311 102.343 39.447 102.58 39.2103C102.816 38.9736 103 38.7106 103.132 38.395C103.264 38.0794 103.342 37.7375 103.342 37.3957C103.342 37.0538 103.264 36.7119 103.132 36.3963ZM102.711 38.2372C102.606 38.5002 102.448 38.7369 102.264 38.921C102.08 39.1051 101.843 39.2629 101.58 39.3681C101.317 39.4733 101.054 39.5259 100.738 39.5259C100.449 39.5259 100.16 39.4733 99.8968 39.3681C99.6338 39.2629 99.3971 39.1051 99.2129 38.921C99.0288 38.7369 98.871 38.5002 98.7658 38.2372C98.6606 37.9742 98.608 37.7112 98.608 37.3957C98.608 37.1064 98.6606 36.8171 98.7658 36.5541C98.871 36.2911 99.0288 36.0544 99.2129 35.8703C99.3971 35.6862 99.6338 35.5284 99.8968 35.4232C100.16 35.318 100.423 35.2654 100.738 35.2654C101.028 35.2654 101.317 35.318 101.58 35.4232C101.843 35.5284 102.08 35.6862 102.264 35.8703C102.448 36.0544 102.606 36.2911 102.711 36.5541C102.816 36.8171 102.869 37.0801 102.869 37.3957C102.895 37.7112 102.816 37.9742 102.711 38.2372ZM101.238 37.606C101.449 37.5797 101.606 37.5009 101.738 37.3694C101.869 37.2379 101.948 37.0538 101.948 36.7908C101.948 36.5015 101.869 36.2911 101.685 36.1333C101.528 35.9755 101.238 35.8966 100.896 35.8966H99.739V38.8684H100.291V37.6586H100.686L101.422 38.8684H102.001L101.238 37.606ZM100.949 37.1853C100.87 37.1853 100.791 37.1853 100.686 37.1853H100.291V36.3437H100.686C100.765 36.3437 100.844 36.3437 100.949 36.3437C101.028 36.3437 101.107 36.37 101.186 36.3963C101.265 36.4226 101.317 36.4752 101.343 36.5278C101.37 36.5804 101.396 36.6593 101.396 36.7645C101.396 36.8697 101.37 36.9486 101.343 37.0012C101.291 37.0538 101.238 37.1064 101.186 37.1327C101.107 37.159 101.028 37.1853 100.949 37.1853Z" fill="black"/>
</svg>
