<svg xmlns="http://www.w3.org/2000/svg" width="81.213" height="79.213" viewBox="0 0 81.213 79.213">
  <g id="Group_13225" data-name="Group 13225" transform="translate(-1139 -1332.787)">
    <g id="Group_13223" data-name="Group 13223" transform="translate(-27 -16)">
      <rect id="Rectangle_5867" data-name="Rectangle 5867" width="81.213" height="79.213" rx="39.606" transform="translate(1166 1348.787)" fill="#cce4f6"/>
      <path id="Path_7236" data-name="Path 7236" d="M177.467,164.774c0-17.492,14.477-31.672,32.336-31.672h0c17.86,0,32.337,14.18,32.337,31.672h0c0,17.492-14.477,31.673-32.337,31.673h0c-17.859,0-32.336-14.181-32.336-31.673Z" transform="translate(996.803 1224.12)" fill="#ccf3fa" stroke="#fff" stroke-width="4"/>
      <g id="Icons_Navigation_icon_12_states_" data-name="Icons / Navigation icon (12 states)" transform="translate(1184 1371)">
        <g id="ic_inbox">
          <path id="Path_376" data-name="Path 376" d="M0,0H44V36H0Z" fill="none"/>
          <rect id="Rectangle_603" data-name="Rectangle 603" width="38" height="26" rx="2" transform="translate(3 5)" fill="none" stroke="#ccf3fa" stroke-linecap="round" stroke-linejoin="round" stroke-width="2"/>
          <path id="Path_377" data-name="Path 377" d="M3,7l19,6L41,7" transform="translate(0 4.667)" fill="none" stroke="#ccf3fa" stroke-linecap="round" stroke-linejoin="round" stroke-width="2"/>
        </g>
      </g>
      <rect id="Rectangle_5868" data-name="Rectangle 5868" width="40" height="27" rx="4" transform="translate(1187 1374)" fill="#168ae0"/>
      <g id="Icons_Navigation_icon_12_states_2" data-name="Icons / Navigation icon (12 states)" transform="translate(1185 1370)">
        <g id="ic_inbox-2" data-name="ic_inbox">
          <path id="Path_376-2" data-name="Path 376" d="M0,0H44V36H0Z" fill="none"/>
          <rect id="Rectangle_603-2" data-name="Rectangle 603" width="38" height="26" rx="2" transform="translate(3 5)" fill="none" stroke="#ccf3fa" stroke-linecap="round" stroke-linejoin="round" stroke-width="2"/>
          <path id="Path_377-2" data-name="Path 377" d="M3,7l19,6L41,7" transform="translate(0 4.667)" fill="none" stroke="#ccf3fa" stroke-linecap="round" stroke-linejoin="round" stroke-width="2"/>
        </g>
      </g>
    </g>
  </g>
</svg>
