<svg width="25" height="54" viewBox="0 0 25 54" fill="none" xmlns="http://www.w3.org/2000/svg">
<path fill-rule="evenodd" clip-rule="evenodd" d="M12.4866 24.9733C19.3828 24.9733 24.9733 19.3828 24.9733 12.4866C24.9733 5.59046 19.3828 0 12.4866 0C5.59046 0 0 5.59046 0 12.4866C0 19.3828 5.59046 24.9733 12.4866 24.9733ZM12.3267 10.3788C14.297 10.3788 15.8943 8.78155 15.8943 6.81121C15.8943 4.84087 14.297 3.2436 12.3267 3.2436C10.3564 3.2436 8.7591 4.84087 8.7591 6.81121C8.7591 8.78155 10.3564 10.3788 12.3267 10.3788Z" fill="#A0EBFF"/>
<path fill-rule="evenodd" clip-rule="evenodd" d="M5.84094 49.592V24.9727C7.76628 26.1863 10.0464 26.8886 12.4905 26.8886C14.9339 26.8886 17.2134 26.1867 19.1384 24.9737V49.592L12.4897 54.0008L10.0564 52.3873V31.4585H8.43475V51.312L5.84094 49.592Z" fill="#A0EBFF"/>
</svg>
