<svg width="21" height="23" viewBox="0 0 21 23" fill="none" xmlns="http://www.w3.org/2000/svg">
<path d="M14.3442 7.98483C14.5632 8.46213 14.8076 8.92752 15.0249 9.4057C15.4429 10.326 15.7605 11.2976 15.8924 12.2998C16.0242 13.302 15.9669 14.337 15.6541 15.2979C15.3005 16.3827 14.6291 17.3477 13.8066 18.1375C12.8335 19.0719 11.5844 19.7923 10.237 19.8454C9.35902 19.8801 8.48495 19.6288 7.70746 19.2192C7.05406 18.8749 6.45755 18.4162 5.98165 17.8512C5.50574 17.2862 5.15237 16.6134 4.98873 15.8926C4.78723 15.0051 4.87843 14.063 5.18337 13.2056C5.40149 12.5924 5.72479 12.0215 5.95494 11.4128C6.20649 10.7477 6.34692 10.0374 6.68018 9.40934C6.98216 8.8398 7.4352 8.35334 7.67585 7.75526C7.81957 7.39806 7.88192 7.01439 7.97474 6.64063C8.06755 6.26686 8.19749 5.8904 8.45024 5.60005C8.75492 5.25018 9.21314 5.06054 9.67365 5.00728C10.1342 4.95403 10.6003 5.02593 11.0523 5.12914C11.4121 5.21127 11.7676 5.31326 12.1153 5.43706C12.4121 5.54276 12.7062 5.66582 12.9628 5.84866C13.3126 6.09775 13.5789 6.44849 13.7911 6.82199C14.0033 7.19549 14.1657 7.5945 14.3449 7.98489L14.3442 7.98483Z" fill="#020204"/>
<path d="M10.4778 19.8547C10.8477 19.8762 11.217 19.9122 11.5835 19.9676C11.9058 20.0166 12.2258 20.0798 12.5426 20.1569C13.0387 20.2773 13.5332 20.4307 14.0435 20.4453C14.1778 20.4491 14.3125 20.4431 14.4444 20.4139C14.5762 20.3847 14.7028 20.3315 14.8079 20.2476C14.9646 20.1226 15.0635 19.9341 15.1009 19.7369C15.1384 19.5397 15.1149 19.3346 15.0572 19.1424C14.9418 18.7583 14.694 18.4305 14.4897 18.0858C14.3724 17.8884 14.2678 17.6832 14.1407 17.492C14.0136 17.3008 13.8616 17.1217 13.6685 16.9972C13.4017 16.825 13.0708 16.7688 12.7549 16.8003C12.439 16.8318 12.1361 16.9461 11.8542 17.0922C11.459 17.297 11.087 17.5783 10.8715 17.9681C10.7965 18.1037 10.7421 18.2495 10.6784 18.3909C10.6147 18.5322 10.5401 18.6713 10.4322 18.7825C10.3118 18.9065 10.1556 18.9901 10.0312 19.1099C9.96894 19.1705 9.91446 19.2395 9.88319 19.3198C9.85192 19.4001 9.84337 19.4919 9.87243 19.5733C9.8924 19.6292 9.92892 19.6782 9.97399 19.7167C10.019 19.7552 10.0723 19.7833 10.1282 19.8028C10.2399 19.8422 10.3602 19.8479 10.4784 19.8548L10.4778 19.8547Z" fill="#020204"/>
<path d="M9.37815 19.8318C9.06984 19.8389 8.76477 19.8942 8.46345 19.9566C8.17479 20.0163 7.88747 20.0829 7.6023 20.1578C7.12114 20.2842 6.63938 20.4356 6.14202 20.4462C6.01113 20.4489 5.87931 20.4418 5.75172 20.4123C5.62414 20.3827 5.50065 20.3301 5.39829 20.2484C5.24192 20.1236 5.14251 19.9354 5.10572 19.7386C5.06893 19.5419 5.0914 19.3371 5.14843 19.1453C5.26256 18.7615 5.50731 18.433 5.70774 18.0866C5.8216 17.8897 5.92209 17.6849 6.04523 17.4937C6.16838 17.3024 6.31668 17.1229 6.50661 16.9979C6.76542 16.8276 7.08819 16.7699 7.39642 16.8003C7.70466 16.8306 8.00005 16.9443 8.27191 17.093C8.65567 17.3028 9.00615 17.5916 9.22803 17.9682C9.38373 18.2327 9.47352 18.5353 9.65552 18.7826C9.75351 18.9158 9.87746 19.0308 9.95817 19.1746C9.99893 19.2465 10.0288 19.3258 10.0357 19.4082C10.0426 19.4907 10.0256 19.5764 9.97922 19.6449C9.94862 19.6902 9.90611 19.7268 9.85863 19.7538C9.81115 19.7808 9.75875 19.7986 9.70529 19.8097C9.59767 19.832 9.48805 19.8285 9.37875 19.8312L9.37815 19.8318ZM7.65543 6.98124C7.61212 6.4595 7.6218 5.93487 7.60297 5.41165C7.58427 4.90856 7.538 4.40574 7.55488 3.90258C7.5721 3.39094 7.65778 2.87257 7.88538 2.41276C8.11298 1.95296 8.48262 1.56398 8.93358 1.32068C9.3573 1.09179 9.84599 0.993973 10.3281 0.999224C10.9818 1.00636 11.6372 1.20401 12.1665 1.58788C12.4984 1.82835 12.7775 2.13836 12.9977 2.48419C13.1856 2.77939 13.3315 3.10179 13.4231 3.44015C13.611 4.13356 13.5664 4.86386 13.603 5.58069C13.6376 6.26009 13.7462 6.93788 13.7092 7.61715C13.7012 7.76526 13.6853 7.91565 13.6196 8.04801C13.5555 8.17693 13.4469 8.2806 13.322 8.35209C13.1971 8.42359 13.0565 8.46425 12.9144 8.4862C12.6301 8.53009 12.3393 8.50114 12.053 8.52774C11.6373 8.56631 11.2408 8.72061 10.8283 8.7845C10.3374 8.86057 9.83583 8.80671 9.33874 8.78679C9.13966 8.77884 8.9399 8.77635 8.7423 8.75151C8.5447 8.72667 8.3475 8.6788 8.17169 8.58496C8.06408 8.5272 7.96367 8.452 7.88283 8.35943C7.80198 8.26687 7.74024 8.15747 7.7095 8.03784C7.6633 7.85924 7.68765 7.67121 7.68832 7.48668C7.68899 7.31798 7.66935 7.14988 7.65469 6.98178L7.65543 6.98124Z" fill="#020204"/>
<path d="M8.43763 6.78126C8.36728 6.86946 8.32141 6.97562 8.2937 7.08515C8.26599 7.19468 8.2559 7.30785 8.25153 7.42068C8.24292 7.64641 8.25664 7.87644 8.19705 8.09429C8.13316 8.32723 7.99017 8.52892 7.85014 8.72563C7.60768 9.06628 7.36253 9.41567 7.24301 9.81637C7.17058 10.0591 7.14643 10.3161 7.17253 10.568C6.90115 10.967 6.66608 11.3907 6.47151 11.8323C6.17652 12.5016 5.97408 13.2142 5.90285 13.9421C5.81569 14.8336 5.92962 15.7505 6.28131 16.5742C6.53554 17.1697 6.91473 17.7149 7.40355 18.1392C7.65207 18.355 7.92816 18.5391 8.22409 18.6843C9.24727 19.1877 10.5117 19.1885 11.5179 18.652C12.0437 18.3715 12.4876 17.9614 12.9155 17.5464C13.1732 17.2965 13.4296 17.0407 13.6262 16.7402C14.0046 16.1618 14.1364 15.4587 14.2184 14.7721C14.3616 13.5716 14.3662 12.3035 13.8404 11.215C13.6588 10.8396 13.4186 10.4955 13.1287 10.1957C13.0517 9.67196 12.8997 9.15918 12.6786 8.67817C12.5192 8.33113 12.3243 8.00079 12.1762 7.64883C12.1154 7.50429 12.0619 7.35632 11.9951 7.21481C11.9283 7.0733 11.8445 6.93711 11.7312 6.82873C11.6153 6.71765 11.4709 6.63902 11.3185 6.58866C11.1661 6.5383 11.0058 6.51548 10.8457 6.5074C10.5252 6.49125 10.2041 6.53319 9.88352 6.52046C9.62828 6.51037 9.37384 6.46553 9.11881 6.48061C8.99129 6.48815 8.8639 6.5109 8.74553 6.55904C8.62716 6.60717 8.51807 6.68136 8.43844 6.7812L8.43763 6.78126Z" fill="#FDFDFB"/>
<g opacity="0.3" filter="url(#filter0_f_14946_169883)">
<path d="M7.96121 7.02843C8.18369 7.16609 8.38338 7.33501 8.55105 7.52774C8.70661 7.70657 8.83891 7.90934 9.04202 8.0418C9.18548 8.13531 9.35779 8.18802 9.5326 8.20401C9.73786 8.2228 9.94555 8.19242 10.1434 8.13878C10.3268 8.08905 10.5041 8.0191 10.6668 7.92671C10.9761 7.75085 11.2345 7.49307 11.5748 7.37749C11.6492 7.35225 11.7268 7.3342 11.7985 7.30307C11.8703 7.27194 11.9378 7.22531 11.9721 7.15934C12.0057 7.09596 12.0037 7.02279 12.0144 6.95315C12.0259 6.87874 12.0517 6.80668 12.0658 6.73265C12.0799 6.65861 12.0816 6.57936 12.047 6.51127C12.0182 6.45484 11.9659 6.41032 11.9058 6.38198C11.8456 6.35364 11.778 6.34081 11.7104 6.33771C11.5755 6.3315 11.4422 6.36344 11.3077 6.37479C11.1295 6.38979 10.95 6.36859 10.7712 6.37355C10.5487 6.37975 10.3295 6.42625 10.1071 6.43587C9.85341 6.4469 9.60039 6.40995 9.34656 6.40176C9.2368 6.39816 9.1263 6.3999 9.01808 6.41745C8.90986 6.435 8.80367 6.46842 8.71206 6.52448C8.62328 6.57886 8.55085 6.65265 8.46947 6.71609C8.42878 6.74784 8.38553 6.77717 8.33805 6.79949C8.29056 6.82182 8.23851 6.83701 8.18537 6.83936C8.158 6.8406 8.13036 6.83843 8.10332 6.84228C8.08064 6.84579 8.05894 6.85342 8.03947 6.8647C8.02 6.87599 8.00315 6.89072 7.98989 6.90805C7.97663 6.92537 7.96721 6.94494 7.9622 6.96564C7.95718 6.98633 7.95666 7.00774 7.96067 7.02862L7.96121 7.02843Z" fill="black"/>
</g>
<path d="M8.54043 3.99149C8.42071 3.99802 8.30604 4.05343 8.2184 4.13536C8.13077 4.21729 8.06909 4.32467 8.03103 4.43857C7.95503 4.66639 7.97218 4.91332 7.98933 5.15218C8.005 5.36908 8.02094 5.5901 8.10212 5.79186C8.14267 5.89271 8.19964 5.98709 8.27564 6.06545C8.35164 6.14382 8.44728 6.20292 8.5526 6.22931C8.65147 6.25409 8.75693 6.24897 8.85412 6.21841C8.9513 6.18784 9.04001 6.13224 9.11279 6.06101C9.21905 5.957 9.29055 5.82094 9.33157 5.67795C9.3726 5.53496 9.3843 5.38497 9.38215 5.23633C9.37946 5.05025 9.35525 4.86337 9.297 4.68672C9.23876 4.51007 9.14594 4.34318 9.01634 4.20968C8.95359 4.14505 8.88196 4.08817 8.80112 4.04831C8.72028 4.00846 8.63008 3.98604 8.54016 3.99089L8.54043 3.99149Z" fill="url(#paint0_radial_14946_169883)"/>
<path d="M10.6602 3.98938C10.4733 4.11729 10.3165 4.29738 10.2399 4.51112C10.1433 4.78054 10.1803 5.082 10.2735 5.35263C10.369 5.62979 10.5287 5.89389 10.7699 6.06031C10.8904 6.14352 11.03 6.20054 11.1754 6.21784C11.3208 6.23514 11.472 6.21145 11.6018 6.14379C11.7601 6.06125 11.8808 5.91672 11.9557 5.75467C12.0307 5.59263 12.0627 5.41336 12.0726 5.23496C12.0861 5.00775 12.0632 4.77677 11.9885 4.56175C11.9075 4.32814 11.7599 4.11271 11.5532 3.97827C11.4496 3.91109 11.3318 3.86491 11.2095 3.84801C11.0872 3.83111 10.9603 3.84377 10.8452 3.88853C10.7797 3.91412 10.7183 3.94959 10.6603 3.98952L10.6602 3.98938Z" fill="url(#paint1_radial_14946_169883)"/>
<g opacity="0.3" filter="url(#filter1_f_14946_169883)">
<path d="M8.50061 5.92829L8.15518 6.24369C8.09438 6.30495 8.03345 6.37052 8.00621 6.45238C7.982 6.52509 7.98657 6.60405 7.9746 6.67993C7.97056 6.70591 7.96451 6.73176 7.96437 6.75802C7.96415 6.77118 7.96592 6.7843 7.96962 6.79693C7.97345 6.80952 7.97971 6.82137 7.98879 6.83099C8.00372 6.84695 8.02497 6.85563 8.04636 6.85994C8.06775 6.86425 8.08974 6.86479 8.11146 6.86715C8.20939 6.87771 8.29965 6.92524 8.38076 6.98125L8.61952 7.15528C8.80313 7.27201 9.02259 7.32392 9.24004 7.3322C9.45748 7.34048 9.67438 7.30729 9.88772 7.26454C10.0572 7.23061 10.2263 7.19049 10.3871 7.12694C10.6335 7.02973 10.8555 6.88007 11.0676 6.72153C11.164 6.6495 11.259 6.57524 11.3456 6.49163C11.375 6.46322 11.4034 6.43373 11.4349 6.40775C11.4664 6.38176 11.5013 6.35914 11.5402 6.34662C11.5994 6.32757 11.6637 6.33302 11.725 6.34325C11.7712 6.35099 11.8176 6.36143 11.8644 6.35941C11.8878 6.35847 11.9113 6.35443 11.933 6.34568C11.9547 6.33692 11.9748 6.32346 11.9897 6.30528C12.0091 6.28098 12.0196 6.25076 12.0194 6.21965C12.0196 6.18882 12.01 6.15839 11.9945 6.1318C11.9633 6.07861 11.9093 6.04273 11.853 6.01769C11.7759 5.98335 11.6925 5.96652 11.6104 5.9466C11.3586 5.88574 11.1137 5.7958 10.8816 5.68041C10.7662 5.62305 10.654 5.5595 10.5405 5.49864C10.4238 5.43603 10.3048 5.37585 10.178 5.33741C9.89465 5.25144 9.58479 5.27965 9.30521 5.37686C8.99448 5.48484 8.71355 5.67731 8.50041 5.92808L8.50061 5.92829Z" fill="black"/>
</g>
<g filter="url(#filter2_f_14946_169883)">
<path d="M11.4332 1.86743C11.2608 1.98922 11.3361 2.14125 11.4102 2.2939C11.4844 2.44656 11.2472 2.88652 11.2446 2.90545C11.2421 2.92438 11.7115 2.68244 11.8395 2.52521C11.9906 2.33959 12.3724 2.77638 12.3517 2.70982C12.3519 2.59091 11.6057 1.74565 11.4333 1.86743H11.4332Z" fill="#7C7C7C"/>
</g>
<path d="M11.0915 4.55413C11.0212 4.55918 10.9527 4.58321 10.8931 4.62145C10.8335 4.65969 10.7826 4.70997 10.7426 4.76821C10.6628 4.88454 10.6276 5.02719 10.622 5.16809C10.6178 5.27392 10.6294 5.38117 10.6646 5.48114C10.6997 5.58111 10.7587 5.67368 10.8403 5.7412C10.9237 5.81034 11.0297 5.85187 11.1379 5.85699C11.2461 5.86211 11.3558 5.83094 11.4446 5.769C11.5154 5.71966 11.5725 5.65173 11.6132 5.57559C11.6539 5.49945 11.6784 5.41516 11.6895 5.32953C11.7093 5.17826 11.687 5.02032 11.6171 4.88474C11.5472 4.74916 11.4288 4.63747 11.2857 4.58476C11.2239 4.56187 11.1573 4.55002 11.0915 4.55473V4.55413Z" fill="#020204"/>
<g filter="url(#filter3_f_14946_169883)">
<path d="M11.2594 5.01397C11.2011 5.037 11.1088 5.02253 11.0833 5.07975C11.0682 5.11368 11.0896 5.16949 11.1239 5.18342C11.1934 5.2117 11.3011 5.16053 11.3292 5.09086C11.3414 5.06056 11.323 5.01276 11.2929 4.99997C11.2818 4.99526 11.2707 5.0094 11.2595 5.01384L11.2594 5.01397Z" fill="#141413"/>
</g>
<g filter="url(#filter4_f_14946_169883)">
<path d="M11.5266 5.16757C11.6047 5.08947 11.471 4.88212 11.3667 4.7973C11.2912 4.73584 11.0712 4.67141 11.0806 4.73839C11.09 4.80538 11.1883 4.89094 11.2553 4.95631C11.3369 5.03676 11.4896 5.20473 11.5266 5.16757Z" fill="url(#paint2_linear_14946_169883)"/>
</g>
<g filter="url(#filter5_f_14946_169883)">
<path d="M11.3097 3.43359C11.2776 3.47399 11.2486 3.51788 11.2256 3.56622C11.3699 3.59732 11.5081 3.65683 11.6311 3.73876C11.8696 3.89723 12.0506 4.12895 12.1776 4.38672C12.2072 4.35387 12.2342 4.3186 12.2575 4.27942C12.1299 4.01094 11.9452 3.76811 11.6985 3.60419C11.58 3.52542 11.4479 3.46591 11.3097 3.43386L11.3097 3.43359Z" fill="url(#paint3_linear_14946_169883)"/>
</g>
<g filter="url(#filter6_f_14946_169883)">
<path d="M8.52681 3.56745C8.51054 3.56711 8.49473 3.56859 8.47839 3.56934L8.44678 3.57122C8.54181 3.57984 8.63631 3.60542 8.72213 3.64393C8.83915 3.69644 8.94233 3.77137 9.03319 3.85666C9.2016 4.01453 9.32677 4.20942 9.41151 4.4161C9.39081 4.25992 9.34392 4.10837 9.27283 3.96781C9.2396 3.92944 9.20517 3.89174 9.16777 3.85673C9.07697 3.7715 8.97367 3.69664 8.85671 3.64399C8.75448 3.59801 8.64054 3.5694 8.52675 3.56738L8.52681 3.56745Z" fill="url(#paint4_linear_14946_169883)"/>
</g>
<path d="M8.25176 4.98051C8.22674 5.13171 8.2258 5.29032 8.27772 5.43445C8.31135 5.52965 8.36852 5.61602 8.43725 5.69027C8.48232 5.73888 8.5333 5.78304 8.59302 5.81165C8.65274 5.84026 8.72188 5.85245 8.78605 5.83636C8.84523 5.82155 8.89716 5.78318 8.93536 5.73558C8.97356 5.68799 8.99912 5.63103 9.01728 5.57266C9.07088 5.40032 9.06234 5.21169 9.00907 5.03921C8.97026 4.91352 8.90603 4.79228 8.80548 4.70752C8.75753 4.66713 8.70137 4.63549 8.64037 4.62088C8.57937 4.60627 8.51325 4.60977 8.45622 4.63569C8.39286 4.6645 8.34377 4.71937 8.31162 4.7811C8.27947 4.84284 8.26299 4.91171 8.25162 4.98037L8.25176 4.98051Z" fill="#020204"/>
<g filter="url(#filter7_f_14946_169883)">
<path d="M8.57107 4.87368C8.58736 4.91636 8.64203 4.93184 8.67205 4.96624C8.7012 4.9997 8.73177 5.03424 8.74779 5.07564C8.77842 5.15481 8.7175 5.27222 8.78145 5.3281C8.80151 5.3456 8.8417 5.346 8.86143 5.3281C8.93851 5.25795 8.92134 5.11644 8.89091 5.01674C8.86331 4.92626 8.79485 4.84062 8.71049 4.79761C8.67145 4.77775 8.61288 4.76125 8.57949 4.78953C8.55794 4.8077 8.56104 4.84742 8.57107 4.87368Z" fill="url(#paint5_linear_14946_169883)"/>
</g>
<path d="M7.97008 6.86078C7.97411 6.88064 7.98171 6.89982 7.99207 6.91732C8.00996 6.94728 8.03605 6.97159 8.06424 6.99205C8.09242 7.01252 8.12295 7.02975 8.15248 7.04826C8.30945 7.14702 8.43731 7.28591 8.55097 7.43247C8.70344 7.62918 8.83829 7.8475 9.04195 7.99056C9.18574 8.09154 9.35779 8.1491 9.53252 8.16667C9.73765 8.18734 9.94548 8.15415 10.1433 8.09585C10.3267 8.04179 10.504 7.96592 10.6667 7.86561C10.9761 7.67469 11.2344 7.39483 11.5747 7.26935C11.6492 7.24195 11.7267 7.22236 11.7984 7.18856C11.8701 7.15477 11.9376 7.10414 11.9719 7.03251C12.0056 6.96371 12.0035 6.88427 12.0143 6.80867C12.0257 6.72788 12.0516 6.64966 12.0657 6.56928C12.0798 6.48889 12.0815 6.40286 12.0469 6.32894C12.0181 6.26768 11.9658 6.21934 11.9056 6.18857C11.8454 6.15781 11.7778 6.14387 11.7103 6.14051C11.5754 6.13378 11.4421 6.16845 11.3076 6.18077C11.1293 6.19706 10.9499 6.17417 10.7711 6.17942C10.5486 6.18615 10.3293 6.23631 10.107 6.24708C9.85327 6.2594 9.60018 6.22015 9.34642 6.21005C9.23652 6.20561 9.12582 6.20668 9.0174 6.2252C8.90898 6.24371 8.80251 6.28067 8.71205 6.34321C8.62395 6.4042 8.5536 6.48728 8.47262 6.55756C8.43213 6.5927 8.38855 6.62488 8.34039 6.64824C8.29224 6.6716 8.23904 6.68621 8.18543 6.68507C8.15853 6.68439 8.12961 6.67988 8.10338 6.68823C8.08697 6.69342 8.07244 6.70351 8.06007 6.71556C8.04769 6.72761 8.03753 6.74162 8.02792 6.75596C8.00555 6.7892 7.98604 6.82429 7.9696 6.86084L7.97008 6.86078Z" fill="url(#paint6_radial_14946_169883)"/>
<g filter="url(#filter8_f_14946_169883)">
<path d="M8.96573 7.13452C8.94058 7.24316 8.95654 7.35728 9.01052 7.45484C9.0645 7.5524 9.15268 7.62648 9.25803 7.66279C9.39106 7.70722 9.54097 7.68541 9.66527 7.62051C9.73723 7.58281 9.80314 7.5299 9.84484 7.46002C9.86593 7.42508 9.87977 7.38625 9.88553 7.34584C9.89091 7.30545 9.88721 7.26371 9.87309 7.22567C9.85762 7.18393 9.83004 7.14704 9.79601 7.11823C9.76198 7.08941 9.72169 7.06854 9.67946 7.05454C9.59485 7.02654 9.50392 7.026 9.41487 7.03031C9.27994 7.03679 9.14572 7.05374 9.01341 7.081" fill="#D9B30D"/>
</g>
<g filter="url(#filter9_f_14946_169883)">
<path d="M8.52921 6.29803L8.26705 6.47058C8.22286 6.50195 8.17732 6.53588 8.15405 6.58475C8.13751 6.61942 8.13374 6.65881 8.13388 6.69718C8.13401 6.73555 8.13589 6.7742 8.13078 6.81163C8.12742 6.83761 8.12043 6.86319 8.11921 6.88938C8.11854 6.90251 8.11955 6.91564 8.12298 6.92843C8.12626 6.94119 8.13261 6.95295 8.14148 6.96269C8.15311 6.97501 8.16892 6.98262 8.18519 6.9876C8.20147 6.99259 8.21815 6.99501 8.23469 6.99905C8.31372 7.01763 8.38246 7.06617 8.44279 7.1205L8.62035 7.28718C8.79098 7.42613 9.01716 7.48376 9.23642 7.48733C9.45568 7.4909 9.67386 7.44492 9.88847 7.39644L10.3879 7.25884C10.6369 7.16695 10.8681 7.02779 11.0684 6.85343C11.1592 6.7744 11.2444 6.68755 11.3463 6.62353C11.4365 6.56685 11.5375 6.52942 11.6292 6.47522C11.6374 6.47038 11.6456 6.46539 11.6529 6.45927C11.6602 6.45314 11.6667 6.44594 11.6711 6.43739C11.6784 6.42258 11.6784 6.40507 11.6737 6.38919C11.669 6.3733 11.6599 6.3593 11.6495 6.34651C11.6381 6.33237 11.6251 6.31944 11.6112 6.30759C11.5154 6.22546 11.3854 6.19571 11.2597 6.18574C11.134 6.17578 11.0068 6.18285 10.8831 6.16205C10.766 6.14185 10.6549 6.09876 10.5419 6.06261C10.4235 6.02426 10.3023 5.99479 10.1795 5.97442C9.89063 5.9273 9.59322 5.93632 9.3067 5.99596C9.03377 6.05285 8.77066 6.15552 8.53056 6.29756L8.52921 6.29803Z" fill="#604405"/>
</g>
<path d="M8.50057 5.99378C8.37077 6.0813 8.25401 6.18787 8.15514 6.30918C8.09864 6.37852 8.04726 6.45392 8.01881 6.53888C7.99641 6.60566 7.98881 6.67635 7.97469 6.74535C7.96931 6.7712 7.96326 6.79719 7.96326 6.82345C7.96332 6.83664 7.96501 6.8499 7.96904 6.86249C7.97308 6.87508 7.97967 6.88686 7.98881 6.89636C8.00395 6.91211 8.02513 6.92059 8.04652 6.92503C8.06791 6.92948 8.08983 6.93008 8.11149 6.93257C8.20935 6.94368 8.29941 6.99128 8.38052 7.04715L8.61955 7.22071C8.80343 7.33717 9.02275 7.38888 9.24013 7.39729C9.4575 7.40571 9.67441 7.37265 9.88781 7.32997C10.0573 7.29611 10.2264 7.25592 10.3872 7.19237C10.6335 7.09515 10.8556 6.9455 11.0677 6.78696C11.1641 6.71493 11.2591 6.64067 11.3457 6.55706C11.3751 6.52865 11.4035 6.49916 11.435 6.47317C11.4665 6.44719 11.5014 6.42457 11.5403 6.41205C11.5995 6.393 11.6638 6.39845 11.7251 6.40868C11.7713 6.41642 11.8177 6.42686 11.8645 6.42484C11.8879 6.4239 11.9114 6.41986 11.9331 6.41111C11.9548 6.40235 11.9749 6.38889 11.9898 6.37071C12.0092 6.34641 12.0197 6.31619 12.0195 6.28508C12.0197 6.25425 12.0101 6.22382 11.9946 6.19723C11.9634 6.14404 11.9094 6.10816 11.8531 6.08312C11.776 6.04878 11.6926 6.03195 11.6105 6.01203C11.3587 5.95117 11.1138 5.86123 10.8817 5.74584C10.7663 5.68848 10.6541 5.62493 10.5406 5.56407C10.4238 5.50146 10.3049 5.44128 10.1781 5.40284C9.89474 5.31687 9.58489 5.34508 9.3053 5.44229C8.99457 5.55027 8.71364 5.74274 8.5005 5.99351L8.50057 5.99378Z" fill="url(#paint7_linear_14946_169883)"/>
<g filter="url(#filter10_f_14946_169883)">
<path d="M10.4913 6.05803C10.4761 6.03878 10.4543 6.02518 10.4308 6.01831C10.4073 6.01145 10.382 6.01158 10.3579 6.01495C10.3095 6.02323 10.2661 6.04861 10.2257 6.07722C10.1106 6.15639 10.0091 6.25414 9.92051 6.36199C9.80315 6.50471 9.7063 6.66978 9.67382 6.85175C9.66844 6.88238 9.66474 6.91368 9.66857 6.94465C9.6724 6.97562 9.68424 7.00625 9.70623 7.02833C9.72547 7.04772 9.7517 7.05957 9.77874 7.06347C9.80577 7.06738 9.83362 7.06361 9.85944 7.05485C9.91123 7.03735 9.95428 7.001 9.9949 6.96464C10.2193 6.76369 10.4222 6.52248 10.5034 6.23219C10.5114 6.20304 10.5184 6.17322 10.5182 6.14299C10.5179 6.11276 10.5101 6.08173 10.4914 6.05803H10.4913Z" fill="#F6DA4A"/>
</g>
<g opacity="0.8" filter="url(#filter11_f_14946_169883)">
<path d="M9.95394 5.64212C9.96942 5.69208 10.0501 5.68386 10.0967 5.70776C10.1375 5.72877 10.1703 5.77488 10.2163 5.77623C10.26 5.77758 10.3283 5.76108 10.3341 5.71766C10.3416 5.66023 10.2578 5.62375 10.2038 5.60267C10.1345 5.57561 10.0454 5.56188 9.98033 5.5981C9.96538 5.60638 9.94909 5.62583 9.95421 5.64219L9.95394 5.64212Z" fill="url(#paint8_radial_14946_169883)"/>
</g>
<g opacity="0.8" filter="url(#filter12_f_14946_169883)">
<path d="M9.18584 5.61078C9.12606 5.59125 9.02716 5.69675 9.05941 5.7508C9.0683 5.76562 9.09543 5.78446 9.11367 5.77437C9.14127 5.75922 9.16376 5.70503 9.19358 5.68382C9.21351 5.66968 9.20906 5.61838 9.18577 5.61084L9.18584 5.61078Z" fill="url(#paint9_radial_14946_169883)"/>
</g>
<g filter="url(#filter13_f_14946_169883)">
<path d="M11.8195 6.63797C11.9257 6.63797 12.0238 6.53144 12.0385 6.40004C12.0532 6.26863 11.979 6.16211 11.8728 6.16211C11.7665 6.16211 11.6685 6.26863 11.6538 6.40004C11.6391 6.53144 11.7133 6.63797 11.8195 6.63797Z" fill="url(#paint10_linear_14946_169883)"/>
</g>
<path d="M14.6521 10.9319C15.0613 11.2615 15.321 11.759 15.4013 12.2786C15.464 12.6838 15.4232 13.0995 15.332 13.4992C15.2408 13.8989 15.0999 14.2853 14.96 14.6706C14.9041 14.8243 14.8482 14.9794 14.826 15.1414C14.8038 15.3034 14.8179 15.4749 14.8959 15.6186C14.9854 15.7832 15.1524 15.8966 15.3319 15.95C15.5091 16.0027 15.7005 16.0015 15.8799 15.9568C16.0593 15.9121 16.2267 15.8247 16.3728 15.7111C16.7437 15.4228 16.9676 14.974 17.0542 14.512C17.1408 14.05 17.101 13.5729 17.0206 13.1097C16.9107 12.4782 16.7259 11.8609 16.4906 11.2646C16.3175 10.826 16.115 10.3948 15.8321 10.0178C15.5553 9.64886 15.2062 9.33831 14.9349 8.96522C14.7464 8.70603 14.5954 8.41655 14.3696 8.18928C14.2566 8.07564 14.1248 7.97843 13.9755 7.92033C13.8261 7.86223 13.6585 7.8452 13.5043 7.88869C13.3012 7.94591 13.1344 8.10613 13.0468 8.29813C12.9591 8.49013 12.943 8.71034 12.9774 8.91883C13.0218 9.18778 13.1446 9.43741 13.2831 9.67216C13.4396 9.9372 13.6209 10.1923 13.8572 10.3894C14.1038 10.5951 14.4021 10.7307 14.6522 10.932L14.6521 10.9319Z" fill="#020204"/>
<g opacity="0.25" filter="url(#filter14_f_14946_169883)">
<path d="M7.30861 9.99641C7.37693 10.099 7.26614 10.4527 8.85851 10.2263C8.85851 10.2263 8.57887 10.2571 8.30319 10.3208C7.87464 10.4644 7.50122 10.6249 7.2132 10.8375C6.92781 11.0477 6.71889 11.322 6.45703 11.5577C6.45703 11.5577 6.88107 10.7821 6.98673 10.5487C7.0924 10.3153 6.96903 10.3266 7.05272 9.98227C7.13641 9.63799 7.34098 9.30859 7.34098 9.30859C7.34098 9.30859 7.17391 9.79398 7.30861 9.99634V9.99641Z" fill="url(#paint11_radial_14946_169883)"/>
</g>
<g opacity="0.42" filter="url(#filter15_f_14946_169883)">
<path d="M12.4291 9.90583C12.1045 10.132 11.9144 10.1053 11.5206 10.1495C11.1268 10.1938 10.0613 10.1778 10.0613 10.1778C10.0613 10.1778 10.2156 10.1749 10.5575 10.2387C10.8994 10.3024 11.5968 10.3633 11.9895 10.513C12.3822 10.6626 12.5254 10.7053 12.7641 10.8563C13.1038 11.0714 13.3532 11.4082 13.678 11.6438C13.678 11.6438 13.6937 11.3311 13.5625 11.0977C13.4314 10.8642 13.0783 10.4962 12.9753 10.1525C12.8722 9.80882 12.8223 9.13379 12.8223 9.13379C12.8223 9.13379 12.7537 9.67943 12.4291 9.90569L12.4291 9.90583Z" fill="url(#paint12_radial_14946_169883)"/>
</g>
<g opacity="0.2" filter="url(#filter16_f_14946_169883)">
<path d="M9.37702 9.42059L9.33014 9.71304C9.32073 9.76084 9.3103 9.80863 9.29248 9.85394C9.27466 9.89925 9.24917 9.94227 9.21312 9.97485C9.18151 10.0034 9.1429 10.0231 9.10416 10.0408C8.95297 10.1102 8.79115 10.1561 8.6261 10.1768L8.8235 10.1949C8.86486 10.1994 8.90636 10.2044 8.94671 10.2148C8.98707 10.2251 9.02641 10.2417 9.05997 10.2656C9.09683 10.2925 9.12575 10.3294 9.14741 10.3697C9.19045 10.4499 9.20484 10.5422 9.21285 10.6322C9.22294 10.7482 9.22374 10.8652 9.21507 10.9812C9.22287 10.9035 9.23915 10.8267 9.26349 10.7525C9.30741 10.6188 9.3781 10.4934 9.47333 10.3899C9.51113 10.3488 9.5527 10.3111 9.59843 10.2789C9.74018 10.18 9.91378 10.1377 10.0851 10.1604C9.91135 10.1675 9.74046 10.1144 9.60126 10.0101C9.53117 9.95721 9.47011 9.89137 9.42773 9.81449C9.36192 9.69401 9.34389 9.55312 9.37722 9.41992L9.37702 9.42059Z" fill="url(#paint13_radial_14946_169883)"/>
</g>
<g opacity="0.1" filter="url(#filter17_f_14946_169883)">
<path d="M8.96223 11.7109C8.87942 12.0261 8.82254 12.3476 8.79218 12.6721C8.74929 13.1307 8.75959 13.5925 8.73495 14.0525C8.71476 14.4428 8.66831 14.8372 8.73603 15.2221C8.76835 15.4057 8.82644 15.5847 8.90804 15.7523C8.92099 15.6883 8.93047 15.6237 8.93645 15.5587C8.96519 15.2466 8.91261 14.9335 8.89484 14.6206C8.86374 14.0721 8.93968 13.5232 8.97058 12.9754C8.99431 12.5542 8.9915 12.1319 8.96216 11.711L8.96223 11.7109Z" fill="black"/>
</g>
<path d="M18.7483 18.0974C18.7032 18.2132 18.6389 18.3214 18.5589 18.4164C18.3824 18.6261 18.1373 18.7644 17.8933 18.889C17.477 19.1013 17.0458 19.2877 16.6545 19.5431C16.3923 19.7143 16.1503 19.9152 15.9241 20.1317C15.7306 20.3168 15.547 20.5145 15.33 20.6714C15.1111 20.8297 14.8579 20.9444 14.5909 20.9845C14.266 21.0333 13.9304 20.9701 13.6291 20.8388C13.4181 20.7468 13.2151 20.6151 13.0935 20.4194C12.9715 20.223 12.9437 19.9826 12.9434 19.7513C12.9428 19.3422 13.0186 18.9367 13.0898 18.5346C13.149 18.1999 13.2055 17.8644 13.2418 17.5265C13.308 16.9118 13.3075 16.2909 13.2634 15.6743C13.2566 15.571 13.2474 15.4667 13.2628 15.3643C13.2783 15.2619 13.3203 15.1599 13.3987 15.0924C13.4711 15.0299 13.5682 15.0024 13.6637 14.9972C13.7592 14.9919 13.8543 15.0071 13.9489 15.0209C14.1717 15.0534 14.3962 15.0791 14.614 15.1364C14.7514 15.1726 14.8853 15.2213 15.0224 15.2583C15.2513 15.3202 15.4909 15.3499 15.7264 15.3224C15.9799 15.2928 16.2261 15.1974 16.4813 15.2036C16.586 15.2061 16.6898 15.2259 16.7897 15.2574C16.8916 15.2896 16.9922 15.3356 17.067 15.4119C17.1239 15.4698 17.1636 15.5429 17.1935 15.6186C17.2378 15.7313 17.2617 15.8513 17.2719 15.972C17.281 16.0789 17.2795 16.1871 17.2998 16.2925C17.3331 16.4658 17.424 16.6239 17.5371 16.7594C17.6501 16.8948 17.7859 17.0098 17.9202 17.1234C18.0547 17.2365 18.1899 17.3493 18.3349 17.4485C18.403 17.495 18.4732 17.5387 18.5379 17.5898C18.6025 17.641 18.6619 17.7007 18.7023 17.7726C18.7571 17.8702 18.7739 17.9886 18.7482 18.0975L18.7483 18.0974Z" fill="url(#paint14_linear_14946_169883)"/>
<g filter="url(#filter18_f_14946_169883)">
<path d="M18.5387 17.8858C18.4971 17.9902 18.4387 18.0871 18.3658 18.1726C18.2043 18.362 17.9804 18.4859 17.758 18.5974C17.3778 18.7879 16.9843 18.9554 16.6267 19.1854C16.3877 19.3392 16.1667 19.5197 15.9596 19.7146C15.7828 19.8811 15.615 20.059 15.4171 20.1998C15.2167 20.3425 14.9855 20.4453 14.7421 20.4812C14.4455 20.525 14.1395 20.4682 13.8639 20.3502C13.6717 20.268 13.4861 20.1503 13.3748 19.9732C13.2641 19.797 13.2382 19.5807 13.2376 19.3726C13.2367 19.0047 13.306 18.6408 13.3714 18.2787C13.4257 17.9778 13.4773 17.6764 13.5102 17.3724C13.5701 16.8198 13.5672 16.2617 13.5299 15.7072C13.5236 15.6143 13.5164 15.5205 13.5307 15.4285C13.5449 15.3365 13.583 15.2449 13.6535 15.1841C13.7196 15.1271 13.8084 15.1021 13.8956 15.0976C13.9828 15.093 14.0696 15.1071 14.1559 15.1198C14.3592 15.1497 14.5643 15.1723 14.7632 15.2237C14.8886 15.2561 15.011 15.2999 15.1362 15.3333C15.3453 15.3891 15.564 15.4157 15.7791 15.3909C16.0105 15.3642 16.2356 15.2785 16.4685 15.284C16.564 15.2864 16.6588 15.3042 16.7503 15.3325C16.8433 15.3612 16.9353 15.4021 17.0035 15.4714C17.0551 15.5236 17.0906 15.5895 17.119 15.6572C17.1611 15.758 17.1884 15.8657 17.1906 15.975C17.193 16.089 17.168 16.2035 17.1835 16.3165C17.196 16.4082 17.2348 16.4947 17.2844 16.573C17.334 16.6512 17.3943 16.7217 17.4541 16.7924C17.5696 16.9291 17.6855 17.0682 17.8303 17.1731C17.9952 17.2926 18.1909 17.3623 18.3613 17.4739C18.412 17.5071 18.4612 17.5447 18.497 17.5937C18.5268 17.6354 18.5463 17.6838 18.5536 17.7346C18.5609 17.7855 18.5558 17.8373 18.5389 17.8858H18.5387Z" fill="#CD8907"/>
</g>
<g filter="url(#filter19_f_14946_169883)">
<path d="M18.2062 18.0787C18.1627 18.1727 18.1063 18.2602 18.0392 18.3379C17.8837 18.5182 17.6736 18.6423 17.4522 18.7219C17.0879 18.8532 16.6901 18.8707 16.3325 19.0202C16.1145 19.1112 15.9184 19.2483 15.7197 19.3781C15.5591 19.4828 15.3951 19.5838 15.2187 19.657C15.0196 19.7398 14.8078 19.7862 14.5954 19.8189C14.4602 19.8396 14.3234 19.8548 14.1869 19.8476C14.0504 19.8404 13.9135 19.8099 13.7931 19.7436C13.7017 19.6933 13.6196 19.6209 13.5708 19.527C13.5166 19.4226 13.5072 19.3 13.5085 19.1817C13.5118 18.8664 13.5826 18.5545 13.5805 18.2392C13.5786 17.9647 13.5216 17.6938 13.5052 17.4199C13.4736 16.893 13.5923 16.357 13.4878 15.8402C13.4712 15.7575 13.4487 15.6748 13.4497 15.5903C13.4503 15.548 13.457 15.5057 13.4725 15.4665C13.488 15.4274 13.5132 15.3919 13.5466 15.3672C13.5748 15.3464 13.608 15.3338 13.6422 15.328C13.6764 15.3223 13.7113 15.3234 13.7457 15.3286C13.8142 15.3387 13.8795 15.3644 13.9462 15.3833C14.1371 15.4375 14.3388 15.4363 14.5328 15.4772C14.6546 15.5029 14.7725 15.5448 14.893 15.5763C15.0953 15.6283 15.3063 15.6515 15.5139 15.6283C15.7372 15.6034 15.9552 15.5262 16.1796 15.5317C16.2716 15.534 16.363 15.5503 16.4517 15.5755C16.5405 15.6008 16.6291 15.6364 16.6963 15.701C16.7447 15.7477 16.7794 15.8072 16.8077 15.8689C16.8489 15.9589 16.8776 16.0567 16.8769 16.1561C16.8766 16.2078 16.8683 16.2591 16.8634 16.3105C16.8586 16.3619 16.8571 16.4148 16.8699 16.4648C16.8828 16.5147 16.91 16.5603 16.941 16.6014C16.972 16.6425 17.0071 16.6801 17.0391 16.7204C17.1288 16.833 17.193 16.9643 17.2629 17.0909C17.3328 17.2175 17.4112 17.3428 17.5216 17.434C17.6719 17.5581 17.8669 17.6077 18.0344 17.7057C18.0835 17.7345 18.131 17.7681 18.1655 17.8142C18.1931 17.8512 18.2113 17.8948 18.2184 17.9409C18.2255 17.987 18.2212 18.0342 18.206 18.0782L18.2062 18.0787Z" fill="#F5C021"/>
</g>
<g filter="url(#filter20_f_14946_169883)">
<path d="M13.4554 15.3219C13.6757 15.2622 13.8634 15.4294 14.0232 15.5557C14.1264 15.6438 14.2756 15.6216 14.4023 15.6258C14.6122 15.6182 14.821 15.661 15.031 15.635C15.4443 15.5999 15.8494 15.4983 16.2646 15.4801C16.463 15.4676 16.6856 15.4561 16.857 15.572C16.9265 15.6202 17.0283 15.8238 17.0968 15.7474C17.0686 15.5334 16.9101 15.3262 16.6973 15.2693C16.5309 15.243 16.361 15.2888 16.1936 15.274C15.6943 15.2621 15.1986 15.1693 14.6982 15.1959C14.3501 15.1989 14.0023 15.1828 13.6547 15.1692C13.5182 15.1412 13.4699 15.2627 13.3958 15.3092" fill="url(#paint15_linear_14946_169883)"/>
</g>
<g opacity="0.75" filter="url(#filter21_f_14946_169883)">
<path d="M14.4428 11.2539C14.5227 11.2416 15.0161 11.661 14.9486 11.8175C14.8812 11.9741 14.7545 11.8795 14.6638 11.8805C14.5731 11.8816 14.3251 11.9942 14.2836 11.9232C14.2421 11.8522 14.3933 11.6862 14.4725 11.5476C14.5362 11.4359 14.3628 11.2671 14.4428 11.2547L14.4428 11.2539Z" fill="#7C7C7C"/>
</g>
<g opacity="0.25" filter="url(#filter22_f_14946_169883)">
<path d="M7.48736 8.61278C7.47937 8.51611 7.34137 8.50163 7.27982 8.54979C7.22784 8.59055 7.17911 8.72958 7.22395 8.78401C7.29684 8.87221 7.49825 8.74537 7.48735 8.61291L7.48736 8.61278Z" fill="#7C7C7C"/>
</g>
<g opacity="0.35" filter="url(#filter23_f_14946_169883)">
<path d="M16.4265 15.656C16.3886 15.5818 16.3198 15.5264 16.2429 15.4943C16.166 15.4621 16.0817 15.4518 15.9985 15.4525C15.832 15.4539 15.6666 15.4972 15.5008 15.4828C15.3607 15.4707 15.2277 15.418 15.0905 15.3847C14.9495 15.3511 14.7998 15.3376 14.6597 15.3751C14.51 15.4159 14.3779 15.5161 14.2952 15.6474C14.2223 15.7632 14.1876 15.9001 14.1768 16.0365C14.1661 16.173 14.1777 16.3103 14.1915 16.4465C14.2014 16.5451 14.2126 16.6438 14.2364 16.74C14.2602 16.8363 14.2972 16.9301 14.3552 17.0103C14.4386 17.1258 14.5625 17.2082 14.6962 17.2577C14.9169 17.3385 15.1598 17.3342 15.3776 17.2458C15.7583 17.0804 16.0805 16.7837 16.2769 16.4178C16.3471 16.2868 16.4018 16.1471 16.4371 16.0027C16.451 15.9453 16.4621 15.8868 16.4626 15.8277C16.4632 15.7686 16.4527 15.7085 16.4259 15.656H16.4265Z" fill="url(#paint16_radial_14946_169883)"/>
</g>
<g opacity="0.35" filter="url(#filter24_f_14946_169883)">
<path d="M16.4265 15.5749C16.3886 15.5212 16.3198 15.4811 16.2429 15.4579C16.166 15.4347 16.0817 15.4273 15.9985 15.4277C15.832 15.4287 15.6666 15.4601 15.5008 15.4496C15.3607 15.4409 15.2277 15.4028 15.0905 15.3787C14.9495 15.3544 14.7998 15.3447 14.6597 15.3718C14.51 15.4013 14.3779 15.4737 14.2952 15.5686C14.2223 15.6523 14.1876 15.7513 14.1768 15.8499C14.1661 15.9486 14.1777 16.0478 14.1915 16.1463C14.2014 16.2176 14.2126 16.2889 14.2364 16.3585C14.2602 16.4281 14.2972 16.4959 14.3552 16.5539C14.4386 16.6374 14.5625 16.697 14.6962 16.7328C14.9169 16.7912 15.1598 16.7881 15.3776 16.7242C15.7583 16.6046 16.0805 16.3901 16.2769 16.1255C16.3471 16.0308 16.4018 15.9299 16.4371 15.8255C16.451 15.784 16.4621 15.7417 16.4626 15.699C16.4632 15.6562 16.4527 15.6128 16.4259 15.5749H16.4265Z" fill="url(#paint17_radial_14946_169883)"/>
</g>
<path d="M16.7428 14.9608C16.7156 14.8864 16.6676 14.8206 16.609 14.7675C16.5504 14.7145 16.4812 14.6738 16.4084 14.6429C16.2628 14.5809 16.1044 14.558 15.9489 14.5287L15.5098 14.4427C15.3571 14.4167 15.1992 14.4002 15.0481 14.4343C14.9159 14.4641 14.7936 14.5326 14.6935 14.6242C14.5934 14.7157 14.5153 14.8299 14.4591 14.954C14.3601 15.1715 14.329 15.4162 14.3479 15.6544C14.362 15.8316 14.4067 16.0143 14.5234 16.1485C14.6176 16.2569 14.7512 16.3245 14.8889 16.3653C15.126 16.4355 15.3844 16.4318 15.6193 16.3548C16.01 16.2227 16.3479 15.9683 16.5831 15.6292C16.6598 15.5181 16.7252 15.3971 16.7548 15.2655C16.7774 15.1645 16.7782 15.0581 16.7428 14.9615V14.9608Z" fill="#020204"/>
<g filter="url(#filter25_f_14946_169883)">
<path d="M15.131 14.3602C15.0943 14.3622 15.0578 14.3665 15.0217 14.3729C14.7883 14.4144 14.5746 14.5621 14.4542 14.7663C14.3693 14.9119 14.3304 15.0799 14.3428 15.2481C14.3478 15.1308 14.3785 15.016 14.4353 14.9135C14.5318 14.7397 14.7065 14.6085 14.9019 14.5727C15.023 14.5506 15.1462 14.564 15.2677 14.579C15.3842 14.5936 15.5017 14.6089 15.6166 14.6338C15.7942 14.6723 15.97 14.7314 16.119 14.8357C16.1537 14.86 16.1863 14.8876 16.2136 14.9199C16.2409 14.9522 16.2622 14.9898 16.2704 15.0314C16.2823 15.0922 16.265 15.1561 16.2347 15.2102C16.2044 15.2642 16.1631 15.3116 16.119 15.3553C16.0834 15.3907 16.0454 15.4249 16.0077 15.4583C16.1798 15.4249 16.3542 15.3777 16.4973 15.2774C16.5578 15.235 16.6126 15.1842 16.6486 15.1196C16.6846 15.0551 16.6999 14.9769 16.6822 14.9051C16.6703 14.8566 16.6439 14.812 16.6108 14.7747C16.5777 14.7373 16.5382 14.7065 16.4973 14.6779C16.3171 14.5516 16.1062 14.4706 15.8879 14.4443C15.748 14.4185 15.6067 14.3968 15.4655 14.379C15.355 14.3652 15.2422 14.3539 15.1312 14.3602L15.131 14.3602Z" fill="url(#paint18_radial_14946_169883)"/>
</g>
<path d="M4.73001 14.6707C4.83762 14.6261 4.95855 14.6179 5.07302 14.6391C5.18749 14.6602 5.29564 14.7097 5.39202 14.7752C5.58464 14.9062 5.7275 15.0968 5.86437 15.2855C6.17859 15.7186 6.48111 16.1608 6.75518 16.6204C6.97754 16.9933 7.18186 17.3783 7.43878 17.7281C7.60652 17.9564 7.79571 18.1684 7.96426 18.396C8.13281 18.6237 8.28225 18.8711 8.35704 19.1445C8.45416 19.4997 8.41656 19.8912 8.24761 20.2184C8.12877 20.4487 7.94657 20.646 7.72489 20.7799C7.50322 20.9137 7.24266 20.9828 6.98399 20.9731C6.57278 20.9576 6.19709 20.7519 5.8148 20.5995C5.03596 20.289 4.18987 20.1915 3.38703 19.9497C3.14019 19.8754 2.89766 19.7874 2.64922 19.719C2.53892 19.6887 2.4266 19.6619 2.32235 19.6147C2.2181 19.5674 2.12058 19.4969 2.0626 19.3981C2.01781 19.3218 1.99884 19.2318 2.00005 19.1432C2.00126 19.0546 2.02198 18.9672 2.05211 18.8839C2.11237 18.7174 2.20969 18.5666 2.2754 18.4021C2.38268 18.1335 2.40198 17.8374 2.38752 17.5485C2.37306 17.2595 2.32632 16.9732 2.30648 16.6847C2.29773 16.5559 2.29437 16.4254 2.31892 16.2986C2.34347 16.1718 2.39801 16.0478 2.49096 15.9583C2.57665 15.8757 2.69038 15.8267 2.8068 15.8023C2.92322 15.7779 3.04321 15.7769 3.16219 15.7795C3.28116 15.7822 3.40028 15.7886 3.51892 15.7789C3.63756 15.7692 3.75654 15.7425 3.85991 15.6834C3.9581 15.6273 4.03841 15.5437 4.10499 15.4522C4.17158 15.3607 4.22538 15.2606 4.28053 15.1618C4.33568 15.063 4.39272 14.9644 4.46495 14.8773C4.53719 14.7902 4.6257 14.7142 4.73015 14.6708L4.73001 14.6707Z" fill="url(#paint19_linear_14946_169883)"/>
<g filter="url(#filter26_f_14946_169883)">
<path d="M4.89976 14.8579C4.99762 14.8185 5.10785 14.8142 5.21069 14.8375C5.31352 14.8608 5.40909 14.9115 5.49236 14.9753C5.65902 15.1041 5.77484 15.2859 5.88608 15.4647C6.15309 15.8978 6.41405 16.3354 6.66061 16.782C6.84738 17.1181 7.02548 17.4614 7.25496 17.7702C7.40723 17.975 7.58095 18.1627 7.73638 18.3652C7.89182 18.5676 8.0303 18.7881 8.0991 19.0339C8.18761 19.3507 8.15176 19.7003 7.99855 19.992C7.88762 20.2024 7.72024 20.3775 7.51524 20.4978C7.30973 20.6174 7.0743 20.6755 6.83682 20.6653C6.46032 20.6479 6.1165 20.4597 5.76206 20.3321C5.08256 20.0853 4.3461 20.0521 3.64912 19.8595C3.39926 19.7916 3.15565 19.7011 2.90458 19.6377C2.79347 19.6096 2.68041 19.5868 2.57489 19.5421C2.46936 19.4975 2.36996 19.4284 2.31272 19.3291C2.27015 19.2552 2.25313 19.1683 2.25575 19.0831C2.25838 18.9978 2.27997 18.9148 2.30956 18.8344C2.37023 18.675 2.4656 18.5314 2.5268 18.3715C2.61961 18.1309 2.63105 17.8664 2.61383 17.6091C2.59661 17.3518 2.55195 17.0968 2.53628 16.8393C2.52929 16.7242 2.52821 16.6077 2.55148 16.4949C2.57475 16.3821 2.62385 16.2727 2.70584 16.1912C2.79462 16.103 2.91702 16.0549 3.04057 16.036C3.16413 16.0172 3.28983 16.0254 3.41419 16.0365C3.53855 16.0476 3.66337 16.0616 3.78814 16.0542C3.9129 16.0467 4.03941 16.0163 4.14258 15.946C4.23654 15.8824 4.30709 15.7895 4.36076 15.6903C4.41443 15.5911 4.45277 15.4846 4.49366 15.3795C4.53455 15.2743 4.57887 15.1693 4.6431 15.0765C4.70733 14.9838 4.79349 14.9011 4.89908 14.8587" fill="#D99A03"/>
</g>
<g filter="url(#filter27_f_14946_169883)">
<path d="M4.66055 14.8672C4.75183 14.8224 4.8593 14.8132 4.95939 14.8334C5.05947 14.8536 5.15218 14.902 5.23103 14.9654C5.38868 15.0913 5.4887 15.2722 5.58192 15.4491C5.79589 15.8555 5.99516 16.2706 6.2512 16.6532C6.43701 16.9302 6.65129 17.1893 6.83917 17.4655C7.09399 17.8401 7.30115 18.2522 7.38661 18.6935C7.4441 18.9903 7.44229 19.3104 7.29779 19.5784C7.20262 19.7544 7.04854 19.8994 6.86643 19.9891C6.68431 20.0789 6.4752 20.1161 6.27147 20.0983C5.95075 20.0703 5.65942 19.9142 5.35754 19.8053C4.82181 19.612 4.24285 19.5659 3.69152 19.42C3.45898 19.3585 3.23187 19.2793 2.99557 19.2312C2.8916 19.2097 2.78555 19.194 2.68631 19.1569C2.58706 19.1198 2.493 19.0583 2.44224 18.9674C2.40663 18.9035 2.39453 18.8286 2.3999 18.7561C2.40527 18.6836 2.42709 18.6129 2.4559 18.5457C2.51339 18.4114 2.59833 18.2883 2.64364 18.1494C2.70923 17.9453 2.68229 17.7241 2.63303 17.5157C2.58376 17.3072 2.51281 17.1027 2.49099 16.8899C2.48128 16.7952 2.48147 16.6986 2.50329 16.6057C2.52511 16.5129 2.56978 16.4237 2.63989 16.3571C2.73007 16.2714 2.85638 16.2287 2.98191 16.2167C3.10744 16.2048 3.23388 16.2211 3.3587 16.2387C3.48351 16.2564 3.60911 16.2765 3.73516 16.2702C3.86121 16.2639 3.98945 16.2318 4.08818 16.1554C4.18581 16.0799 4.24718 15.9674 4.2824 15.851C4.31762 15.7346 4.32901 15.6129 4.34345 15.4924C4.35789 15.3719 4.37582 15.2503 4.42308 15.138C4.47034 15.0257 4.54997 14.9222 4.66132 14.8675L4.66055 14.8672Z" fill="#F5BD0C"/>
</g>
<g filter="url(#filter28_f_14946_169883)">
<path d="M5.99646 15.6787C6.17173 15.996 6.27867 16.3601 6.45246 16.6801C6.6124 16.9744 6.7944 17.2775 6.95689 17.549C7.02919 17.6698 7.19787 17.8556 7.3685 18.1439C7.52306 18.4051 7.67909 18.7698 7.76646 18.8922C7.71629 18.7488 7.61311 18.3639 7.49003 18.0895C7.3757 17.8331 7.24118 17.6868 7.15866 17.549C6.99617 17.2775 6.82123 17.0335 6.65423 16.7748C6.42388 16.4178 6.24827 16.0184 5.99646 15.6788V15.6787Z" fill="url(#paint20_linear_14946_169883)"/>
</g>
<defs>
<filter id="filter0_f_14946_169883" x="7.57476" y="5.95367" width="4.8838" height="2.63954" filterUnits="userSpaceOnUse" color-interpolation-filters="sRGB">
<feFlood flood-opacity="0" result="BackgroundImageFix"/>
<feBlend mode="normal" in="SourceGraphic" in2="BackgroundImageFix" result="shape"/>
<feGaussianBlur stdDeviation="0.191623" result="effect1_foregroundBlur_14946_169883"/>
</filter>
<filter id="filter1_f_14946_169883" x="7.38123" y="4.703" width="5.22131" height="3.21313" filterUnits="userSpaceOnUse" color-interpolation-filters="sRGB">
<feFlood flood-opacity="0" result="BackgroundImageFix"/>
<feBlend mode="normal" in="SourceGraphic" in2="BackgroundImageFix" result="shape"/>
<feGaussianBlur stdDeviation="0.291564" result="effect1_foregroundBlur_14946_169883"/>
</filter>
<filter id="filter2_f_14946_169883" x="10.3856" y="0.996478" width="2.82589" height="2.76876" filterUnits="userSpaceOnUse" color-interpolation-filters="sRGB">
<feFlood flood-opacity="0" result="BackgroundImageFix"/>
<feBlend mode="normal" in="SourceGraphic" in2="BackgroundImageFix" result="shape"/>
<feGaussianBlur stdDeviation="0.429496" result="effect1_foregroundBlur_14946_169883"/>
</filter>
<filter id="filter3_f_14946_169883" x="10.9717" y="4.89234" width="0.46801" height="0.405754" filterUnits="userSpaceOnUse" color-interpolation-filters="sRGB">
<feFlood flood-opacity="0" result="BackgroundImageFix"/>
<feBlend mode="normal" in="SourceGraphic" in2="BackgroundImageFix" result="shape"/>
<feGaussianBlur stdDeviation="0.0533428" result="effect1_foregroundBlur_14946_169883"/>
</filter>
<filter id="filter4_f_14946_169883" x="10.858" y="4.48759" width="0.914464" height="0.907628" filterUnits="userSpaceOnUse" color-interpolation-filters="sRGB">
<feFlood flood-opacity="0" result="BackgroundImageFix"/>
<feBlend mode="normal" in="SourceGraphic" in2="BackgroundImageFix" result="shape"/>
<feGaussianBlur stdDeviation="0.111184" result="effect1_foregroundBlur_14946_169883"/>
</filter>
<filter id="filter5_f_14946_169883" x="11.1622" y="3.37018" width="1.15881" height="1.07995" filterUnits="userSpaceOnUse" color-interpolation-filters="sRGB">
<feFlood flood-opacity="0" result="BackgroundImageFix"/>
<feBlend mode="normal" in="SourceGraphic" in2="BackgroundImageFix" result="shape"/>
<feGaussianBlur stdDeviation="0.0317057" result="effect1_foregroundBlur_14946_169883"/>
</filter>
<filter id="filter6_f_14946_169883" x="8.38894" y="3.50954" width="1.0804" height="0.964316" filterUnits="userSpaceOnUse" color-interpolation-filters="sRGB">
<feFlood flood-opacity="0" result="BackgroundImageFix"/>
<feBlend mode="normal" in="SourceGraphic" in2="BackgroundImageFix" result="shape"/>
<feGaussianBlur stdDeviation="0.0289208" result="effect1_foregroundBlur_14946_169883"/>
</filter>
<filter id="filter7_f_14946_169883" x="8.34356" y="4.55462" width="0.792867" height="1.00698" filterUnits="userSpaceOnUse" color-interpolation-filters="sRGB">
<feFlood flood-opacity="0" result="BackgroundImageFix"/>
<feBlend mode="normal" in="SourceGraphic" in2="BackgroundImageFix" result="shape"/>
<feGaussianBlur stdDeviation="0.109899" result="effect1_foregroundBlur_14946_169883"/>
</filter>
<filter id="filter8_f_14946_169883" x="8.56892" y="6.64314" width="1.7042" height="1.42857" filterUnits="userSpaceOnUse" color-interpolation-filters="sRGB">
<feFlood flood-opacity="0" result="BackgroundImageFix"/>
<feBlend mode="normal" in="SourceGraphic" in2="BackgroundImageFix" result="shape"/>
<feGaussianBlur stdDeviation="0.192591" result="effect1_foregroundBlur_14946_169883"/>
</filter>
<filter id="filter9_f_14946_169883" x="7.79425" y="5.61957" width="4.20752" height="2.19251" filterUnits="userSpaceOnUse" color-interpolation-filters="sRGB">
<feFlood flood-opacity="0" result="BackgroundImageFix"/>
<feBlend mode="normal" in="SourceGraphic" in2="BackgroundImageFix" result="shape"/>
<feGaussianBlur stdDeviation="0.162385" result="effect1_foregroundBlur_14946_169883"/>
</filter>
<filter id="filter10_f_14946_169883" x="9.30323" y="5.64894" width="1.57871" height="1.78025" filterUnits="userSpaceOnUse" color-interpolation-filters="sRGB">
<feFlood flood-opacity="0" result="BackgroundImageFix"/>
<feBlend mode="normal" in="SourceGraphic" in2="BackgroundImageFix" result="shape"/>
<feGaussianBlur stdDeviation="0.18188" result="effect1_foregroundBlur_14946_169883"/>
</filter>
<filter id="filter11_f_14946_169883" x="9.90612" y="5.52904" width="0.475608" height="0.294456" filterUnits="userSpaceOnUse" color-interpolation-filters="sRGB">
<feFlood flood-opacity="0" result="BackgroundImageFix"/>
<feBlend mode="normal" in="SourceGraphic" in2="BackgroundImageFix" result="shape"/>
<feGaussianBlur stdDeviation="0.0235651" result="effect1_foregroundBlur_14946_169883"/>
</filter>
<filter id="filter12_f_14946_169883" x="9.00597" y="5.56127" width="0.247336" height="0.263206" filterUnits="userSpaceOnUse" color-interpolation-filters="sRGB">
<feFlood flood-opacity="0" result="BackgroundImageFix"/>
<feBlend mode="normal" in="SourceGraphic" in2="BackgroundImageFix" result="shape"/>
<feGaussianBlur stdDeviation="0.0235651" result="effect1_foregroundBlur_14946_169883"/>
</filter>
<filter id="filter13_f_14946_169883" x="11.5055" y="6.01577" width="0.681222" height="0.768258" filterUnits="userSpaceOnUse" color-interpolation-filters="sRGB">
<feFlood flood-opacity="0" result="BackgroundImageFix"/>
<feBlend mode="normal" in="SourceGraphic" in2="BackgroundImageFix" result="shape"/>
<feGaussianBlur stdDeviation="0.073168" result="effect1_foregroundBlur_14946_169883"/>
</filter>
<filter id="filter14_f_14946_169883" x="6.16104" y="9.0126" width="2.99347" height="2.841" filterUnits="userSpaceOnUse" color-interpolation-filters="sRGB">
<feFlood flood-opacity="0" result="BackgroundImageFix"/>
<feBlend mode="normal" in="SourceGraphic" in2="BackgroundImageFix" result="shape"/>
<feGaussianBlur stdDeviation="0.147995" result="effect1_foregroundBlur_14946_169883"/>
</filter>
<filter id="filter15_f_14946_169883" x="9.5737" y="8.64621" width="4.59248" height="3.48493" filterUnits="userSpaceOnUse" color-interpolation-filters="sRGB">
<feFlood flood-opacity="0" result="BackgroundImageFix"/>
<feBlend mode="normal" in="SourceGraphic" in2="BackgroundImageFix" result="shape"/>
<feGaussianBlur stdDeviation="0.243791" result="effect1_foregroundBlur_14946_169883"/>
</filter>
<filter id="filter16_f_14946_169883" x="8.28976" y="9.08358" width="2.13166" height="2.2342" filterUnits="userSpaceOnUse" color-interpolation-filters="sRGB">
<feFlood flood-opacity="0" result="BackgroundImageFix"/>
<feBlend mode="normal" in="SourceGraphic" in2="BackgroundImageFix" result="shape"/>
<feGaussianBlur stdDeviation="0.168169" result="effect1_foregroundBlur_14946_169883"/>
</filter>
<filter id="filter17_f_14946_169883" x="8.08101" y="11.0914" width="1.52498" height="5.28011" filterUnits="userSpaceOnUse" color-interpolation-filters="sRGB">
<feFlood flood-opacity="0" result="BackgroundImageFix"/>
<feBlend mode="normal" in="SourceGraphic" in2="BackgroundImageFix" result="shape"/>
<feGaussianBlur stdDeviation="0.309774" result="effect1_foregroundBlur_14946_169883"/>
</filter>
<filter id="filter18_f_14946_169883" x="11.19" y="13.0491" width="9.4144" height="9.4946" filterUnits="userSpaceOnUse" color-interpolation-filters="sRGB">
<feFlood flood-opacity="0" result="BackgroundImageFix"/>
<feBlend mode="normal" in="SourceGraphic" in2="BackgroundImageFix" result="shape"/>
<feGaussianBlur stdDeviation="1.0238" result="effect1_foregroundBlur_14946_169883"/>
</filter>
<filter id="filter19_f_14946_169883" x="11.8363" y="13.7108" width="7.99898" height="7.75227" filterUnits="userSpaceOnUse" color-interpolation-filters="sRGB">
<feFlood flood-opacity="0" result="BackgroundImageFix"/>
<feBlend mode="normal" in="SourceGraphic" in2="BackgroundImageFix" result="shape"/>
<feGaussianBlur stdDeviation="0.806721" result="effect1_foregroundBlur_14946_169883"/>
</filter>
<filter id="filter20_f_14946_169883" x="13.1905" y="14.9598" width="4.11151" height="1.01007" filterUnits="userSpaceOnUse" color-interpolation-filters="sRGB">
<feFlood flood-opacity="0" result="BackgroundImageFix"/>
<feBlend mode="normal" in="SourceGraphic" in2="BackgroundImageFix" result="shape"/>
<feGaussianBlur stdDeviation="0.102615" result="effect1_foregroundBlur_14946_169883"/>
</filter>
<filter id="filter21_f_14946_169883" x="13.2944" y="10.2718" width="2.64264" height="2.65656" filterUnits="userSpaceOnUse" color-interpolation-filters="sRGB">
<feFlood flood-opacity="0" result="BackgroundImageFix"/>
<feBlend mode="normal" in="SourceGraphic" in2="BackgroundImageFix" result="shape"/>
<feGaussianBlur stdDeviation="0.491044" result="effect1_foregroundBlur_14946_169883"/>
</filter>
<filter id="filter22_f_14946_169883" x="6.93217" y="8.24931" width="0.829758" height="0.838303" filterUnits="userSpaceOnUse" color-interpolation-filters="sRGB">
<feFlood flood-opacity="0" result="BackgroundImageFix"/>
<feBlend mode="normal" in="SourceGraphic" in2="BackgroundImageFix" result="shape"/>
<feGaussianBlur stdDeviation="0.137066" result="effect1_foregroundBlur_14946_169883"/>
</filter>
<filter id="filter23_f_14946_169883" x="12.9541" y="14.134" width="4.7271" height="4.39995" filterUnits="userSpaceOnUse" color-interpolation-filters="sRGB">
<feFlood flood-opacity="0" result="BackgroundImageFix"/>
<feBlend mode="normal" in="SourceGraphic" in2="BackgroundImageFix" result="shape"/>
<feGaussianBlur stdDeviation="0.609264" result="effect1_foregroundBlur_14946_169883"/>
</filter>
<filter id="filter24_f_14946_169883" x="13.7001" y="14.883" width="3.23502" height="2.36393" filterUnits="userSpaceOnUse" color-interpolation-filters="sRGB">
<feFlood flood-opacity="0" result="BackgroundImageFix"/>
<feBlend mode="normal" in="SourceGraphic" in2="BackgroundImageFix" result="shape"/>
<feGaussianBlur stdDeviation="0.236245" result="effect1_foregroundBlur_14946_169883"/>
</filter>
<filter id="filter25_f_14946_169883" x="13.9014" y="13.9192" width="3.22733" height="1.97794" filterUnits="userSpaceOnUse" color-interpolation-filters="sRGB">
<feFlood flood-opacity="0" result="BackgroundImageFix"/>
<feBlend mode="normal" in="SourceGraphic" in2="BackgroundImageFix" result="shape"/>
<feGaussianBlur stdDeviation="0.219584" result="effect1_foregroundBlur_14946_169883"/>
</filter>
<filter id="filter26_f_14946_169883" x="0.574232" y="13.142" width="9.25376" height="9.2053" filterUnits="userSpaceOnUse" color-interpolation-filters="sRGB">
<feFlood flood-opacity="0" result="BackgroundImageFix"/>
<feBlend mode="normal" in="SourceGraphic" in2="BackgroundImageFix" result="shape"/>
<feGaussianBlur stdDeviation="0.840631" result="effect1_foregroundBlur_14946_169883"/>
</filter>
<filter id="filter27_f_14946_169883" x="1.36395" y="13.7885" width="7.09266" height="7.34876" filterUnits="userSpaceOnUse" color-interpolation-filters="sRGB">
<feFlood flood-opacity="0" result="BackgroundImageFix"/>
<feBlend mode="normal" in="SourceGraphic" in2="BackgroundImageFix" result="shape"/>
<feGaussianBlur stdDeviation="0.517366" result="effect1_foregroundBlur_14946_169883"/>
</filter>
<filter id="filter28_f_14946_169883" x="5.83793" y="15.5202" width="2.08708" height="3.53092" filterUnits="userSpaceOnUse" color-interpolation-filters="sRGB">
<feFlood flood-opacity="0" result="BackgroundImageFix"/>
<feBlend mode="normal" in="SourceGraphic" in2="BackgroundImageFix" result="shape"/>
<feGaussianBlur stdDeviation="0.0792644" result="effect1_foregroundBlur_14946_169883"/>
</filter>
<radialGradient id="paint0_radial_14946_169883" cx="0" cy="0" r="1" gradientUnits="userSpaceOnUse" gradientTransform="translate(259.935 380.15) rotate(-2.41233) scale(16.7389 41.0099)">
<stop stop-color="#FEFEFC"/>
<stop offset="0.757" stop-color="#FEFEFC"/>
<stop offset="1" stop-color="#D4D4D4"/>
</radialGradient>
<radialGradient id="paint1_radial_14946_169883" cx="0" cy="0" r="1" gradientUnits="userSpaceOnUse" gradientTransform="translate(466.482 398.1) rotate(-1.81173) scale(29.9685 43.3485)">
<stop stop-color="#FEFEFC"/>
<stop offset="0.757" stop-color="#FEFEFC"/>
<stop offset="1" stop-color="#D4D4D4"/>
</radialGradient>
<linearGradient id="paint2_linear_14946_169883" x1="153.409" y1="66.1687" x2="156.511" y2="69.8957" gradientUnits="userSpaceOnUse">
<stop stop-color="#949494" stop-opacity="0.392"/>
<stop offset="0.5" stop-color="#949494"/>
<stop offset="1" stop-color="#949494" stop-opacity="0.392"/>
</linearGradient>
<linearGradient id="paint3_linear_14946_169883" x1="27.2307" y1="104.048" x2="40.8139" y2="117.932" gradientUnits="userSpaceOnUse">
<stop stop-color="#646464" stop-opacity="0"/>
<stop offset="0.306" stop-color="#646464" stop-opacity="0.583"/>
<stop offset="0.47" stop-color="#646464"/>
<stop offset="0.728" stop-color="#646464" stop-opacity="0.257"/>
<stop offset="1" stop-color="#646464" stop-opacity="0"/>
</linearGradient>
<linearGradient id="paint4_linear_14946_169883" x1="-16.4173" y1="94.0965" x2="-5.08286" y2="106.504" gradientUnits="userSpaceOnUse">
<stop stop-color="#646464" stop-opacity="0"/>
<stop offset="0.306" stop-color="#646464" stop-opacity="0.583"/>
<stop offset="0.47" stop-color="#646464"/>
<stop offset="0.728" stop-color="#646464" stop-opacity="0.257"/>
<stop offset="1" stop-color="#646464" stop-opacity="0"/>
</linearGradient>
<linearGradient id="paint5_linear_14946_169883" x1="66.5166" y1="79.649" x2="70.3755" y2="83.9483" gradientUnits="userSpaceOnUse">
<stop stop-color="#757574" stop-opacity="0"/>
<stop offset="0.263" stop-color="#757574"/>
<stop offset="0.5" stop-color="#757574"/>
<stop offset="1" stop-color="#757574" stop-opacity="0"/>
</linearGradient>
<radialGradient id="paint6_radial_14946_169883" cx="0" cy="0" r="1" gradientUnits="userSpaceOnUse" gradientTransform="translate(1232.44 -198.252) rotate(-22.4473) scale(129.379 44.9792)">
<stop stop-color="#D2940A"/>
<stop offset="0.751" stop-color="#D89C08"/>
<stop offset="0.866" stop-color="#B67E07"/>
<stop offset="1" stop-color="#946106"/>
</radialGradient>
<linearGradient id="paint7_linear_14946_169883" x1="198.028" y1="329.427" x2="427.084" y2="325.875" gradientUnits="userSpaceOnUse">
<stop stop-color="#AD780A"/>
<stop offset="0.12" stop-color="#D89E08"/>
<stop offset="0.255" stop-color="#EDB80B"/>
<stop offset="0.392" stop-color="#EBC80D"/>
<stop offset="0.527" stop-color="#F5D838"/>
<stop offset="0.769" stop-color="#F6D811"/>
<stop offset="1" stop-color="#F5CD31"/>
</linearGradient>
<radialGradient id="paint8_radial_14946_169883" cx="0" cy="0" r="1" gradientUnits="userSpaceOnUse" gradientTransform="translate(39.5718 22.7896) scale(1.23169 0.377079)">
<stop stop-color="#3A2903"/>
<stop offset="0.555" stop-color="#735208"/>
<stop offset="1" stop-color="#AC8C04"/>
</radialGradient>
<radialGradient id="paint9_radial_14946_169883" cx="0" cy="0" r="1" gradientUnits="userSpaceOnUse" gradientTransform="translate(18.7179 32.3625) scale(0.235018 0.278602)">
<stop stop-color="#3A2903"/>
<stop offset="0.555" stop-color="#735208"/>
<stop offset="1" stop-color="#AC8C04"/>
</radialGradient>
<linearGradient id="paint10_linear_14946_169883" x1="96.8125" y1="80.8806" x2="97.0565" y2="82.1464" gradientUnits="userSpaceOnUse">
<stop stop-color="#F5CE2D"/>
<stop offset="1" stop-color="#D79B08"/>
</linearGradient>
<radialGradient id="paint11_radial_14946_169883" cx="0" cy="0" r="1" gradientUnits="userSpaceOnUse" gradientTransform="translate(-535.089 388.11) rotate(180) scale(45.9428 47.0259)">
<stop/>
<stop offset="1" stop-opacity="0.25"/>
</radialGradient>
<radialGradient id="paint12_radial_14946_169883" cx="0" cy="0" r="1" gradientUnits="userSpaceOnUse" gradientTransform="translate(1119.73 461.769) scale(99.0804 52.4819)">
<stop/>
<stop offset="1" stop-opacity="0.25"/>
</radialGradient>
<radialGradient id="paint13_radial_14946_169883" cx="0" cy="0" r="1" gradientUnits="userSpaceOnUse" gradientTransform="translate(391.223 384.56) scale(15.8229 18.1047)">
<stop/>
<stop offset="1" stop-opacity="0.25"/>
</radialGradient>
<linearGradient id="paint14_linear_14946_169883" x1="2584.12" y1="2246.06" x2="2876.89" y2="1786.26" gradientUnits="userSpaceOnUse">
<stop stop-color="#3E2A06"/>
<stop offset="1" stop-color="#AD780A"/>
</linearGradient>
<linearGradient id="paint15_linear_14946_169883" x1="180.551" y1="188.72" x2="180.412" y2="196.44" gradientUnits="userSpaceOnUse">
<stop stop-color="#F3CD0C"/>
<stop offset="1" stop-color="#F3CD0C" stop-opacity="0"/>
</linearGradient>
<radialGradient id="paint16_radial_14946_169883" cx="0" cy="0" r="1" gradientUnits="userSpaceOnUse" gradientTransform="translate(856.452 1117.15) rotate(15.0137) scale(52.2515 47.0053)">
<stop stop-color="#110800"/>
<stop offset="0.591" stop-color="#A65A00" stop-opacity="0.8"/>
<stop offset="1" stop-color="#FF921E" stop-opacity="0"/>
</radialGradient>
<radialGradient id="paint17_radial_14946_169883" cx="0" cy="0" r="1" gradientUnits="userSpaceOnUse" gradientTransform="translate(856.452 811.871) rotate(10.973) scale(51.4077 34.5391)">
<stop stop-color="#110800"/>
<stop offset="0.591" stop-color="#A65A00" stop-opacity="0.8"/>
<stop offset="1" stop-color="#FF921E" stop-opacity="0"/>
</radialGradient>
<radialGradient id="paint18_radial_14946_169883" cx="0" cy="0" r="1" gradientUnits="userSpaceOnUse" gradientTransform="translate(319.243 200.926) rotate(23.5417) scale(18.9578 4.10128)">
<stop stop-color="#7C7C7C"/>
<stop offset="1" stop-color="#7C7C7C" stop-opacity="0.33"/>
</radialGradient>
<linearGradient id="paint19_linear_14946_169883" x1="791.253" y1="1928.22" x2="1092.7" y2="2439.06" gradientUnits="userSpaceOnUse">
<stop stop-color="#B98309"/>
<stop offset="1" stop-color="#382605"/>
</linearGradient>
<linearGradient id="paint20_linear_14946_169883" x1="308.737" y1="1051.14" x2="366.972" y2="1111.52" gradientUnits="userSpaceOnUse">
<stop stop-color="#EBC40C"/>
<stop offset="1" stop-color="#EBC40C" stop-opacity="0"/>
</linearGradient>
</defs>
</svg>
