<svg xmlns="http://www.w3.org/2000/svg" width="100%" height="100%" preserveAspectRatio="none" viewBox="0 0 758.249 64.001">
  <g id="Group_13234" data-name="Group 13234" transform="translate(-976.751 -1985.77)">
    <g id="Group_13233" data-name="Group 13233">
      <g id="Group_13220" data-name="Group 13220">
        <rect id="Rectangle_5861" data-name="Rectangle 5861" width="756.249" height="64.001" transform="translate(976.751 1985.77)" fill="#cce4f6"/>
        <path id="Intersection_4" data-name="Intersection 4" d="M2,65V2H503.928v4.47A91.615,91.615,0,0,1,482.912,65Z" transform="translate(974.749 1983.77)" fill="#168ae0"/>
        <g id="Intersection_3" data-name="Intersection 3" transform="translate(1735 2049.771) rotate(180)" fill="#93c9f1">
          <path d="M 135.4999237060547 63.50080108642578 L 0.500008761882782 63.50080108642578 L 0.500008761882782 0.500000536441803 L 116.7516784667969 0.500000536441803 C 122.6889419555664 8.270153999328613 127.3123092651367 16.87423896789551 130.4957580566406 26.07816505432129 C 133.8162689208984 35.67841720581055 135.4999237060547 45.74581909179688 135.4999237060547 56.00070953369141 L 135.4999237060547 63.50080108642578 Z" stroke="none"/>
          <path d="M 134.9999237060547 63.00080108642578 L 134.9999237060547 56.00070953369141 C 134.9999237060547 45.80156326293945 133.3255157470703 35.78916549682617 130.0232086181641 26.24160003662109 C 126.8841247558594 17.16594123840332 122.3367156982422 8.676025390625 116.5040740966797 1.000000596046448 L 1.000008821487427 1.000000596046448 L 1.000008821487427 63.00080108642578 L 134.9999237060547 63.00080108642578 M 135.9999237060547 64.00080108642578 L 8.769087799009867e-06 64.00080108642578 L 8.769087799009867e-06 5.432128773463774e-07 L 116.9984817504883 5.432128773463774e-07 C 128.9160308837891 15.51112747192383 135.9999237060547 34.92790985107422 135.9999237060547 56.00070953369141 L 135.9999237060547 64.00080108642578 Z" stroke="none" fill="#c0ecf8"/>
        </g>
      </g>
    </g>
  </g>
</svg>
