<svg width="64" height="26" viewBox="0 0 64 26" fill="none" xmlns="http://www.w3.org/2000/svg">
<g clip-path="url(#clip0_1474_226729)">
<path d="M4.59691 0.839844H0V5.51556H4.59691V0.839844Z" fill="white"/>
<path d="M4.47643 25.1606V8.34314H0.120483V25.1606H4.47643ZM33.3461 25.3303V21.2108C32.7066 21.2108 32.1784 21.1731 31.7706 21.1071C31.3257 21.0317 30.9735 20.8808 30.7511 20.6452C30.5194 20.4095 30.3711 20.0701 30.297 19.6365C30.2321 19.2217 30.195 18.675 30.195 18.0151V12.1327H33.3461V8.34314H30.195V1.8009H25.8391V18.0528C25.8391 19.4197 25.9596 20.5886 26.1913 21.5219C26.423 22.4363 26.8122 23.1904 27.3498 23.756C27.8873 24.3216 28.6102 24.727 29.4721 24.9721C30.3526 25.2172 31.4647 25.3397 32.79 25.3397H33.3461V25.3303ZM58.3047 25.1606V0.5H53.9488V25.1606H58.3047ZM21.6407 10.0023C20.4359 8.67308 18.7305 8.00377 16.5711 8.00377C15.5331 8.00377 14.5692 8.22059 13.7166 8.65422C12.8639 9.08786 12.1318 9.69118 11.5571 10.4453L11.3162 10.7564V10.4736V8.34314H7.01585V25.1606H11.344V16.2051V16.8273C11.344 16.7236 11.344 16.6199 11.344 16.5256C11.3903 14.9514 11.7703 13.7824 12.4932 13.0377C13.2625 12.2459 14.1892 11.8405 15.2551 11.8405C16.5155 11.8405 17.4701 12.2364 18.1096 13C18.7306 13.7541 19.0457 14.8382 19.0549 16.224V16.2617V16.2711V25.1606H23.4479V15.6207C23.4572 13.2168 22.8455 11.3314 21.6407 10.0023ZM51.6782 16.7236C51.6782 15.517 51.465 14.3763 51.0479 13.3205C50.6309 12.2741 50.0377 11.3409 49.2963 10.5396C48.5548 9.74774 47.6466 9.11614 46.5993 8.67308C45.5613 8.23002 44.3935 8.00377 43.1424 8.00377C41.9561 8.00377 40.8254 8.23944 39.7874 8.69193C38.7401 9.15385 37.8225 9.77602 37.0533 10.5584C36.2841 11.3409 35.6631 12.2741 35.2183 13.3394C34.7641 14.3952 34.5417 15.5452 34.5417 16.7519C34.5417 17.9585 34.7549 19.1086 35.1904 20.1644C35.6168 21.2296 36.2192 22.1629 36.9792 22.9359C37.7391 23.7183 38.6659 24.3499 39.741 24.8024C40.8161 25.2643 42.0117 25.4906 43.2814 25.4906C46.97 25.4906 49.2685 23.7843 50.6401 22.1912L47.5076 19.7591C46.8495 20.5603 45.2833 21.635 43.3185 21.635C42.0858 21.635 41.0756 21.3428 40.3156 20.7771C39.5464 20.2021 39.0181 19.4197 38.7401 18.4393L38.6937 18.279H51.6782V16.7236V16.7236ZM38.7308 15.1776C38.7308 13.9427 40.121 11.7934 43.1146 11.7934C46.1081 11.7934 47.4983 13.9427 47.4983 15.1682L38.7308 15.1776Z" fill="white"/>
<path d="M63.2631 23.0383C63.1797 22.8403 63.0592 22.6707 62.9202 22.5198C62.7719 22.369 62.6051 22.2559 62.4105 22.171C62.2158 22.0862 62.0027 22.0391 61.7802 22.0391C61.5578 22.0391 61.3446 22.0862 61.15 22.171C60.9554 22.2559 60.7886 22.3784 60.6403 22.5198C60.492 22.6707 60.3808 22.8403 60.2974 23.0383C60.2139 23.2363 60.1676 23.4531 60.1676 23.6793C60.1676 23.9056 60.2139 24.1224 60.2974 24.3204C60.3808 24.5183 60.5013 24.688 60.6403 24.8388C60.7886 24.9897 60.9554 25.1028 61.15 25.1876C61.3446 25.2725 61.5578 25.3196 61.7802 25.3196C62.0027 25.3196 62.2158 25.2725 62.4105 25.1876C62.6051 25.1028 62.7719 24.9802 62.9202 24.8388C63.0685 24.688 63.1797 24.5183 63.2631 24.3204C63.3465 24.1224 63.3929 23.9056 63.3929 23.6793C63.3929 23.4531 63.3465 23.2457 63.2631 23.0383ZM63.0036 24.2072C62.9387 24.3675 62.8368 24.5183 62.7163 24.6409C62.5958 24.7634 62.4568 24.8577 62.29 24.9331C62.1324 24.9991 61.9563 25.0368 61.771 25.0368C61.5856 25.0368 61.4188 24.9991 61.252 24.9331C61.0944 24.8671 60.9461 24.7634 60.8256 24.6409C60.7051 24.5183 60.6125 24.3769 60.5383 24.2072C60.4734 24.047 60.4364 23.8679 60.4364 23.6793C60.4364 23.4908 60.4734 23.3211 60.5383 23.1514C60.6032 22.9912 60.7051 22.8403 60.8256 22.7178C60.9461 22.5952 61.0851 22.501 61.252 22.4256C61.4095 22.3596 61.5856 22.3219 61.771 22.3219C61.9563 22.3219 62.1231 22.3596 62.29 22.4256C62.4475 22.4916 62.5958 22.5952 62.7163 22.7178C62.8368 22.8403 62.9295 22.9817 63.0036 23.1514C63.0685 23.3117 63.1056 23.4908 63.1056 23.6793C63.1056 23.8679 63.0685 24.0376 63.0036 24.2072ZM62.0861 23.8113C62.2158 23.7925 62.3178 23.7453 62.4012 23.6699C62.4846 23.5851 62.5217 23.4625 62.5217 23.3023C62.5217 23.1232 62.4661 22.9817 62.3641 22.8875C62.2622 22.7932 62.0953 22.7461 61.8729 22.7461H61.1593V24.622H61.4929V23.8584H61.7432L62.2066 24.622H62.5587L62.0861 23.8113ZM61.9007 23.5379C61.8451 23.5379 61.7988 23.5474 61.7432 23.5474H61.4929V23.0195H61.7432C61.7988 23.0195 61.8451 23.0195 61.9007 23.0195C61.9563 23.0195 62.0027 23.0289 62.0397 23.0477C62.0861 23.0666 62.1139 23.0949 62.1417 23.1231C62.1695 23.1609 62.1788 23.208 62.1788 23.2646C62.1788 23.3211 62.1695 23.3777 62.1417 23.406C62.1139 23.4437 62.0861 23.4719 62.0397 23.4814C62.0027 23.5285 61.9563 23.5379 61.9007 23.5379Z" fill="white"/>
</g>
<defs>
<clipPath id="clip0_1474_226729">
<rect width="63.3929" height="25" fill="white" transform="translate(0 0.5)"/>
</clipPath>
</defs>
</svg>
