<svg width="12" height="14" viewBox="0 0 12 14" fill="none" xmlns="http://www.w3.org/2000/svg">
<path fill-rule="evenodd" clip-rule="evenodd" d="M0 1C0 0.447716 0.447715 0 1 0H4C4.55229 0 5 0.447715 5 1V13C5 13.5523 4.55229 14 4 14H1C0.447715 14 0 13.5523 0 13V1ZM1 1H4V13H1L1 1Z" fill="#2B2C30"/>
<path fill-rule="evenodd" clip-rule="evenodd" d="M7 1C7 0.447716 7.44772 0 8 0H11C11.5523 0 12 0.447715 12 1V13C12 13.5523 11.5523 14 11 14H8C7.44772 14 7 13.5523 7 13V1ZM8 1H11V13H8V1Z" fill="#2B2C30"/>
</svg>
