<svg width="24" height="24" viewBox="0 0 24 24" fill="none" xmlns="http://www.w3.org/2000/svg">
<path fill-rule="evenodd" clip-rule="evenodd" d="M19.8573 2H4.143C3.74851 2 3.42871 2.3198 3.42871 2.71429V21.2857C3.42871 21.6802 3.74851 22 4.143 22H14.7716C14.959 21.9992 15.1385 21.9248 15.2716 21.7929L20.3573 16.75C20.4936 16.6164 20.5708 16.4337 20.5716 16.2429V2.71429C20.5716 2.3198 20.2518 2 19.8573 2ZM4.85718 3.42861H19.1429V15.5715H14.8572C14.4627 15.5715 14.1429 15.8913 14.1429 16.2858L14.0643 20.5715H4.85718V3.42861ZM15.5144 19.5714L18.1073 17H15.5715L15.5144 19.5714Z" fill="#555555"/>
<rect x="2" y="4.85742" width="20" height="7.85714" rx="1" fill="#DE231B"/>
<path d="M6.37354 6.7207V10.8007H7.43639V9.4407H8.31068C9.29925 9.4407 9.78496 8.96642 9.78496 8.0407C9.78496 7.1607 9.18496 6.7207 8.32211 6.7207H6.37354ZM7.43639 8.61785V7.57213H8.16782C8.49925 7.57213 8.72211 7.74927 8.72211 8.10927C8.72211 8.46356 8.50496 8.61785 8.16782 8.61785H7.43639Z" fill="white"/>
<path d="M10.2854 6.7207V10.8007H12.0397C13.2397 10.8007 14.0397 10.1207 14.0397 8.74356C14.0397 7.46356 13.2682 6.7207 12.0454 6.7207H10.2854ZM11.3482 9.88642V7.63499H11.8682C12.5482 7.63499 12.9768 7.97213 12.9768 8.74356C12.9768 9.63499 12.5711 9.88642 11.7939 9.88642H11.3482Z" fill="white"/>
<path d="M14.6213 6.7207V10.8007H15.6842V9.22927H17.3642V8.40642H15.6842V7.57213H17.627V6.7207H14.6213Z" fill="white"/>
</svg>
