<svg width="14" height="14" viewBox="0 0 14 14" fill="none" xmlns="http://www.w3.org/2000/svg">
<path d="M6.5 3.25C6.5 3.11193 6.61193 3 6.75 3H7.25C7.38807 3 7.5 3.11193 7.5 3.25V6.5H10.75C10.8881 6.5 11 6.61193 11 6.75V7.25C11 7.38807 10.8881 7.5 10.75 7.5H7.5V10.75C7.5 10.8881 7.38807 11 7.25 11H6.75C6.61193 11 6.5 10.8881 6.5 10.75V7.5H3.25C3.11193 7.5 3 7.38807 3 7.25V6.75C3 6.61193 3.11193 6.5 3.25 6.5H6.5V3.25Z" fill="white"/>
<path fill-rule="evenodd" clip-rule="evenodd" d="M11.9576 11.9419C13.2197 10.6758 14 8.92902 14 7C14 5.07098 13.2197 3.32421 11.9576 2.05808C10.6902 0.786729 8.93697 0 7 0C5.06303 0 3.3098 0.786729 2.04244 2.05808C0.780281 3.32421 0 5.07098 0 7C0 8.92902 0.780281 10.6758 2.04244 11.9419C3.3098 13.2133 5.06303 14 7 14C8.93698 14 10.6902 13.2133 11.9576 11.9419ZM11.2426 11.2426C12.3284 10.1569 13 8.65685 13 7C13 5.34315 12.3284 3.84315 11.2426 2.75736C10.1569 1.67157 8.65685 1 7 1C5.34315 1 3.84315 1.67157 2.75736 2.75736C1.67157 3.84315 1 5.34315 1 7C1 8.65685 1.67157 10.1569 2.75736 11.2426C3.84315 12.3284 5.34315 13 7 13C8.65686 13 10.1569 12.3284 11.2426 11.2426Z" fill="white"/>
</svg>
