<svg width="32" height="33" viewBox="0 0 32 33" fill="none" xmlns="http://www.w3.org/2000/svg">
<path fill-rule="evenodd" clip-rule="evenodd" d="M26 28.5V8.5L20 2.5H4.5C4.22386 2.5 4 2.72386 4 3V28.5C4 29.0275 4.20421 29.5073 4.5379 29.8647C4.90294 30.2556 5.42293 30.5 6 30.5H24C24.5771 30.5 25.0971 30.2556 25.4621 29.8647C25.7958 29.5073 26 29.0275 26 28.5ZM18 4.5H6V28.5H24V10.5H20C18.8954 10.5 18 9.60457 18 8.5V4.5Z" fill="#2D3741"/>
<path fill-rule="evenodd" clip-rule="evenodd" d="M14.5 26.5C14.2239 26.5 14 26.2761 14 26V24.4638C13.3446 24.3324 12.7349 24.0746 12.1975 23.7167L11.1292 24.785C10.934 24.9803 10.6174 24.9803 10.4221 24.785L9.715 24.0779C9.51974 23.8826 9.51974 23.566 9.71501 23.3708L10.7833 22.3025C10.4254 21.7651 10.1676 21.1554 10.0362 20.5H8.5C8.22386 20.5 8 20.2761 8 20V19C8 18.7239 8.22386 18.5 8.5 18.5H10.0362C10.1676 17.8446 10.4254 17.2349 10.7833 16.6975L9.71501 15.6292C9.51974 15.434 9.51974 15.1174 9.715 14.9221L10.4221 14.215C10.6174 14.0197 10.934 14.0197 11.1292 14.215L12.1975 15.2833C12.7349 14.9254 13.3446 14.6676 14 14.5362V13C14 12.7239 14.2239 12.5 14.5 12.5H15.5C15.7761 12.5 16 12.7239 16 13V14.5362C16.6554 14.6676 17.2651 14.9254 17.8025 15.2833L18.8708 14.215C19.066 14.0197 19.3826 14.0197 19.5779 14.215L20.285 14.9221C20.4803 15.1174 20.4803 15.434 20.285 15.6292L19.2167 16.6975C19.5746 17.2349 19.8324 17.8446 19.9638 18.5H21.5C21.7761 18.5 22 18.7239 22 19V20C22 20.2761 21.7761 20.5 21.5 20.5H19.9638C19.8324 21.1554 19.5746 21.7651 19.2167 22.3025L20.285 23.3708C20.4803 23.566 20.4803 23.8826 20.285 24.0779L19.5779 24.785C19.3826 24.9803 19.066 24.9803 18.8708 24.785L17.8025 23.7167C17.2651 24.0746 16.6554 24.3324 16 24.4638V26C16 26.2761 15.7761 26.5 15.5 26.5H14.5ZM15 22.5C16.6569 22.5 18 21.1569 18 19.5C18 17.8431 16.6569 16.5 15 16.5C13.3431 16.5 12 17.8431 12 19.5C12 21.1569 13.3431 22.5 15 22.5Z" fill="#2D3741"/>
</svg>
