<svg width="25" height="25" viewBox="0 0 25 25" fill="none" xmlns="http://www.w3.org/2000/svg">
<path d="M22.4856 4.728C21.0349 2.84943 19.0597 1.44326 16.8098 0.687344C14.5599 -0.0685751 12.1363 -0.140292 9.84565 0.481264C7.55497 1.10282 5.50006 2.38973 3.94082 4.17923C2.38157 5.96874 1.38802 8.18045 1.08583 10.5347C0.783633 12.8889 1.18637 15.2798 2.2431 17.4051C3.29983 19.5304 4.96308 21.2946 7.02251 22.4746C9.08194 23.6545 11.445 24.1973 13.8129 24.0341C16.1808 23.871 18.4471 23.0093 20.3253 21.558C25.5677 17.5065 26.5352 9.97238 22.4853 4.728H22.4856Z" fill="#FF6C37"/>
<path d="M17.0355 7.70695L11.9756 12.8069L10.5458 11.3369C15.5257 6.35695 16.0256 6.80695 17.0358 7.70695H17.0355Z" fill="white"/>
<path d="M11.9756 12.9478C11.9308 12.9467 11.888 12.9289 11.8556 12.8979L10.4157 11.4579C10.3832 11.4243 10.3651 11.3795 10.3651 11.3328C10.3651 11.2862 10.3832 11.2413 10.4157 11.2078C15.3255 6.29788 15.9956 6.52776 17.1555 7.57776C17.1749 7.5933 17.1904 7.61315 17.2008 7.63573C17.2113 7.65832 17.2163 7.68302 17.2155 7.70788C17.223 7.75663 17.2042 7.80651 17.1656 7.83801L12.1058 12.8983C12.0703 12.9308 12.0238 12.9486 11.9756 12.9481V12.9478ZM10.7955 11.3379L11.9756 12.518L16.7756 7.71801C16.6099 7.51031 16.3734 7.371 16.1114 7.32672C15.8494 7.28244 15.5803 7.3363 15.3555 7.47801C14.4855 7.86801 13.0856 9.05788 10.7955 11.3379V11.3379Z" fill="#FF6C37"/>
<path d="M13.4258 14.2149L12.0458 12.8049L17.1056 7.80469C18.4657 9.13481 16.4456 11.3548 13.4258 14.2146V14.2149Z" fill="white"/>
<path d="M13.4257 14.3979C13.3815 14.3944 13.3395 14.3769 13.3057 14.348L11.8957 12.968C11.8746 12.9167 11.8746 12.8592 11.8957 12.8079C11.8808 12.7658 11.8808 12.7198 11.8957 12.6777L16.9556 7.61788C16.9908 7.58481 17.0372 7.56641 17.0855 7.56641C17.1338 7.56641 17.1803 7.58481 17.2154 7.61788C17.3793 7.76869 17.5088 7.95303 17.595 8.15835C17.6813 8.36367 17.7223 8.58516 17.7153 8.80775C17.7153 10.1578 16.1752 11.8576 13.5555 14.3379C13.5205 14.3725 13.4744 14.3937 13.4254 14.3979H13.4257ZM12.3056 12.8079L13.4355 13.9374C15.4353 12.0474 17.3456 10.0974 17.3553 8.77738C17.3662 8.49754 17.2737 8.2235 17.0954 8.0075L12.3056 12.8079Z" fill="#FF6C37"/>
<path d="M10.5856 11.3675L11.5857 12.3677C11.5921 12.3733 11.5972 12.3802 11.6007 12.388C11.6042 12.3957 11.606 12.4041 11.606 12.4127C11.606 12.4212 11.6042 12.4296 11.6007 12.4373C11.5972 12.4451 11.5921 12.452 11.5857 12.4577L9.47556 12.9077C9.43297 12.9168 9.38853 12.9119 9.34903 12.8935C9.30953 12.8751 9.27712 12.8443 9.25673 12.8058C9.23635 12.7673 9.22911 12.7231 9.23612 12.6801C9.24313 12.6371 9.26401 12.5976 9.29556 12.5675L10.5256 11.3477C10.5256 11.3477 10.5657 11.3477 10.5856 11.3675Z" fill="white"/>
<path d="M9.42568 13.1031C9.35901 13.1022 9.29367 13.0843 9.2359 13.051C9.17813 13.0177 9.12985 12.9702 9.09569 12.9129C9.05724 12.8404 9.04329 12.7574 9.05593 12.6763C9.06857 12.5952 9.10711 12.5203 9.16581 12.4629L10.3857 11.2329C10.4297 11.1936 10.4866 11.1719 10.5456 11.1719C10.6046 11.1719 10.6616 11.1936 10.7055 11.2329L11.7057 12.2331C11.7649 12.2893 11.7882 12.3744 11.7657 12.4532C11.7432 12.5319 11.6772 12.5946 11.5958 12.6133L9.48568 13.0633L9.42568 13.1031ZM10.5458 11.5832L9.41593 12.7131L11.286 12.3129L10.5458 11.5832Z" fill="#FF6C37"/>
<path d="M19.7257 4.89546C19.002 4.19721 17.865 4.16796 17.106 4.82683C16.347 5.48571 16.2173 6.61671 16.8083 7.43046C17.3992 8.24421 18.5134 8.47221 19.3759 7.95546L18.0157 6.59533L19.7257 4.89546Z" fill="white"/>
<path d="M18.3756 8.41435C17.9598 8.40902 17.5548 8.28145 17.211 8.04752C16.8672 7.8136 16.5998 7.48367 16.4422 7.09885C16.2846 6.71432 16.2433 6.29205 16.3233 5.88428C16.4033 5.47651 16.6011 5.10114 16.8922 4.8046C17.2925 4.41159 17.8311 4.19141 18.3921 4.19141C18.9532 4.19141 19.4918 4.41159 19.8921 4.8046C19.9304 4.83685 19.9521 4.88448 19.9521 4.93473C19.952 4.95945 19.9466 4.98386 19.9363 5.00631C19.9259 5.02876 19.9109 5.04873 19.8921 5.06485L18.2721 6.59485L19.5021 7.80498C19.5221 7.82401 19.537 7.84763 19.5457 7.87377C19.5544 7.89992 19.5566 7.9278 19.552 7.95498C19.549 7.98119 19.5404 8.00644 19.5265 8.02893C19.5127 8.05141 19.4942 8.07059 19.4721 8.0851C19.1417 8.29164 18.7618 8.40562 18.3723 8.4151L18.3756 8.41435ZM18.3756 4.53423C17.6631 4.53798 17.0257 4.9666 16.7583 5.62173C16.4909 6.27685 16.6364 7.03098 17.1359 7.53423C17.3843 7.78412 17.7025 7.95316 18.0486 8.0192C18.3947 8.08524 18.7528 8.04521 19.0758 7.90435L17.8956 6.72423C17.8769 6.70923 17.8617 6.6902 17.8513 6.66855C17.8409 6.6469 17.8355 6.62318 17.8355 6.59916C17.8355 6.57514 17.8409 6.55143 17.8513 6.52978C17.8617 6.50813 17.8769 6.4891 17.8956 6.4741L19.4556 4.90398C19.1455 4.66631 18.7663 4.53636 18.3756 4.53385V4.53423Z" fill="#FF6C37"/>
<path d="M19.7558 4.92578L18.0458 6.62566L19.4059 7.98578C19.5428 7.90719 19.6702 7.81321 19.7858 7.70565C20.1422 7.32887 20.3384 6.82832 20.3328 6.30965C20.3272 5.79099 20.1203 5.29479 19.7558 4.92578V4.92578Z" fill="white"/>
<path d="M19.3754 8.13706C19.353 8.13828 19.3305 8.13443 19.3098 8.12579C19.289 8.11716 19.2704 8.10397 19.2554 8.08719L17.8953 6.72706C17.8766 6.71206 17.8614 6.69303 17.851 6.67138C17.8406 6.64973 17.8352 6.62602 17.8352 6.602C17.8352 6.57798 17.8406 6.55427 17.851 6.53262C17.8614 6.51097 17.8766 6.49194 17.8953 6.47694L19.5952 4.80706C19.6116 4.78231 19.6339 4.76201 19.6601 4.74796C19.6862 4.73391 19.7155 4.72656 19.7452 4.72656C19.7749 4.72656 19.8041 4.73391 19.8303 4.74796C19.8565 4.76201 19.8788 4.78231 19.8952 4.80706C20.0947 5.00259 20.2533 5.23597 20.3615 5.49354C20.4697 5.75111 20.5255 6.02768 20.5255 6.30706C20.5255 6.58645 20.4697 6.86302 20.3615 7.12059C20.2533 7.37815 20.0947 7.61154 19.8952 7.80706C19.7775 7.93192 19.6428 8.0396 19.4951 8.12694C19.4579 8.14568 19.4149 8.14931 19.3751 8.13706H19.3754ZM18.2756 6.59731L19.4054 7.72719C19.4832 7.67271 19.5567 7.61255 19.6256 7.54719C19.9577 7.21595 20.1448 6.7664 20.1457 6.29731C20.1465 5.87752 19.9934 5.47198 19.7156 5.15731L18.2756 6.59731Z" fill="#FF6C37"/>
<path d="M17.2454 7.91674C17.11 7.78955 16.9311 7.71875 16.7453 7.71875C16.5595 7.71875 16.3807 7.78955 16.2453 7.91674L11.7157 12.4362L12.4657 13.1964L17.2555 8.99636C17.3286 8.92635 17.3865 8.84214 17.4258 8.74889C17.4651 8.65565 17.4848 8.55535 17.4839 8.45418C17.4829 8.353 17.4613 8.25309 17.4203 8.1606C17.3793 8.06811 17.3197 7.98499 17.2454 7.91636V7.91674Z" fill="white"/>
<path d="M12.4255 13.3785C12.3807 13.3774 12.3379 13.3596 12.3055 13.3286L11.5454 12.5685C11.513 12.5349 11.4949 12.4901 11.4949 12.4434C11.4949 12.3967 11.513 12.3519 11.5454 12.3183L16.0754 7.80821C16.2059 7.67789 16.3725 7.58977 16.5536 7.55529C16.7348 7.52081 16.9221 7.54155 17.0914 7.61483C17.2606 7.68811 17.4039 7.81054 17.5027 7.96625C17.6015 8.12196 17.6513 8.30376 17.6455 8.48808C17.6403 8.61319 17.6102 8.73601 17.5569 8.84934C17.5037 8.96267 17.4284 9.06423 17.3354 9.14808L12.5455 13.3481C12.5107 13.3727 12.4679 13.3834 12.4255 13.3781V13.3785ZM11.8957 12.438L12.3955 12.948L17.0954 8.85783C17.2116 8.75658 17.281 8.61183 17.2855 8.45771C17.29 8.30358 17.2292 8.15283 17.1156 8.04783C17.0107 7.94334 16.8686 7.88468 16.7206 7.88468C16.5725 7.88468 16.4304 7.94334 16.3255 8.04783L11.8957 12.438Z" fill="#FF6C37"/>
<path d="M8.20585 17.5838C8.19305 17.6012 8.18615 17.6223 8.18615 17.6438C8.18615 17.6654 8.19305 17.6865 8.20585 17.7038L8.40572 18.5738C8.41373 18.625 8.40614 18.6775 8.38393 18.7243C8.36172 18.7711 8.32593 18.8102 8.28122 18.8363C8.23667 18.8624 8.185 18.8736 8.13364 18.8685C8.08229 18.8633 8.03391 18.8419 7.99547 18.8075L6.62561 17.4875L10.8957 13.1836H12.3758L13.3759 14.1837C11.8158 15.5477 10.0763 16.6917 8.20585 17.5838V17.5838Z" fill="white"/>
<path d="M5.27534 19.5914C5.16209 19.5892 5.05034 19.5427 4.97534 19.4613L3.66547 18.1514C3.64671 18.1364 3.63157 18.1174 3.62116 18.0957C3.61075 18.0741 3.60535 18.0504 3.60535 18.0264C3.60535 18.0023 3.61075 17.9786 3.62116 17.957C3.63157 17.9353 3.64671 17.9163 3.66547 17.9013L7.96519 13.5914C7.98926 13.5658 8.02073 13.5484 8.05519 13.5415H9.54505C9.58387 13.5278 9.62622 13.5278 9.66505 13.5415L10.6652 14.5417C10.6842 14.5592 10.6987 14.5811 10.7073 14.6055C10.716 14.6298 10.7187 14.6559 10.715 14.6815C10.7157 14.7064 10.7107 14.7311 10.7003 14.7536C10.6899 14.7762 10.6744 14.7961 10.655 14.8117L10.5752 14.8818C9.00877 16.1877 7.28546 17.2928 5.44521 18.1717L5.63533 18.9817C5.65003 19.0442 5.65059 19.1091 5.63698 19.1719C5.62337 19.2346 5.59592 19.2935 5.55665 19.3443C5.51737 19.395 5.46726 19.4364 5.40996 19.4653C5.35267 19.4943 5.28963 19.5101 5.22546 19.5115L5.27534 19.5914ZM4.05547 18.0213L5.23521 19.2112C5.2462 19.221 5.26042 19.2264 5.27515 19.2264C5.28988 19.2264 5.30409 19.221 5.31509 19.2112C5.32244 19.201 5.3264 19.1887 5.3264 19.1761C5.3264 19.1635 5.32244 19.1513 5.31509 19.141L5.11521 18.271C5.09946 18.2086 5.10579 18.1426 5.13313 18.0843C5.16047 18.026 5.20713 17.979 5.26521 17.9512C7.05598 17.0841 8.73487 16.0028 10.265 14.731L9.44492 13.9109H8.10506L4.05547 18.0213Z" fill="#FF6C37"/>
<path d="M5.59581 18.5197L6.59593 17.5195L8.13604 19.0597L5.68619 18.8898C5.64412 18.8865 5.60418 18.87 5.57205 18.8426C5.53992 18.8153 5.51725 18.7785 5.50727 18.7375C5.49729 18.6965 5.50051 18.6534 5.51648 18.6144C5.53245 18.5753 5.56035 18.5423 5.59619 18.52L5.59581 18.5197Z" fill="white"/>
<path d="M8.16562 19.2083L5.72551 19.0384C5.58076 19.0249 5.45626 18.9259 5.40527 18.7936C5.35427 18.6612 5.38539 18.5041 5.48551 18.3983L6.48563 17.3982C6.51919 17.3658 6.56403 17.3477 6.61069 17.3477C6.65735 17.3477 6.70219 17.3658 6.73575 17.3982L8.26574 18.9282C8.28692 18.9572 8.29834 18.9922 8.29834 19.0281C8.29834 19.0641 8.28692 19.0991 8.26574 19.1281C8.24261 19.1655 8.20722 19.1937 8.16562 19.2079V19.2083ZM5.72551 18.6484L7.72537 18.7786L6.6255 17.7484L5.72551 18.6484Z" fill="#FF6C37"/>
<path d="M12.5157 13.3107L10.4956 13.6208L11.6656 12.4609L12.5157 13.3107Z" fill="white"/>
<path d="M10.4955 13.8066C10.4619 13.8075 10.4288 13.7985 10.4004 13.7807C10.3719 13.7629 10.3493 13.7371 10.3354 13.7065C10.3141 13.6775 10.3026 13.6425 10.3026 13.6066C10.3026 13.5706 10.3141 13.5356 10.3354 13.5066L11.4953 12.3366C11.5304 12.3036 11.5769 12.2852 11.6252 12.2852C11.6735 12.2852 11.7199 12.3036 11.7551 12.3366L12.6056 13.1864C12.6226 13.2133 12.6316 13.2445 12.6316 13.2764C12.6316 13.3082 12.6226 13.3394 12.6056 13.3664C12.5973 13.3992 12.5796 13.429 12.5548 13.452C12.53 13.4751 12.4991 13.4906 12.4657 13.4965L10.4659 13.8066H10.4955ZM11.6655 12.7165L11.0156 13.3664L12.1357 13.1965L11.6655 12.7165Z" fill="#FF6C37"/>
<path d="M12.5157 13.3072L11.1057 13.4872C11.068 13.4957 11.0285 13.4919 10.9931 13.4763C10.9577 13.4606 10.9283 13.434 10.9092 13.4003C10.8902 13.3666 10.8825 13.3277 10.8872 13.2893C10.892 13.2509 10.9091 13.2151 10.9358 13.1872L11.666 12.457L12.5157 13.3072Z" fill="white"/>
<path d="M11.0656 13.6771C11.0002 13.6765 10.9362 13.6586 10.88 13.6252C10.8238 13.5918 10.7775 13.5441 10.7457 13.487C10.7075 13.4186 10.6927 13.3395 10.7035 13.2619C10.7144 13.1843 10.7502 13.1123 10.8057 13.0569L11.5358 12.3268C11.571 12.2937 11.6175 12.2753 11.6657 12.2753C11.714 12.2753 11.7605 12.2937 11.7957 12.3268L12.6458 13.1769C12.6711 13.2008 12.6889 13.2316 12.697 13.2655C12.7052 13.2993 12.7033 13.3348 12.6917 13.3677C12.68 13.4005 12.6591 13.4292 12.6315 13.4504C12.6038 13.4716 12.5706 13.4843 12.5359 13.487L11.1361 13.667L11.0656 13.6771ZM11.0656 13.307L12.1257 13.1769L11.6558 12.707L11.0558 13.307H11.0656ZM19.7655 6.07702C19.7466 6.04546 19.7169 6.02192 19.6818 6.01086C19.6468 5.9998 19.6089 6.00199 19.5754 6.01702C19.5588 6.02541 19.5441 6.03703 19.5321 6.0512C19.5201 6.06537 19.5111 6.0818 19.5056 6.09952C19.4945 6.13527 19.498 6.17397 19.5154 6.20714C19.5855 6.35452 19.566 6.52889 19.4655 6.65714C19.453 6.6695 19.4432 6.68431 19.4368 6.70064C19.4303 6.71697 19.4273 6.73447 19.428 6.75202C19.4284 6.78719 19.4417 6.82098 19.4655 6.84689C19.4911 6.85702 19.5197 6.85702 19.5454 6.84689C19.5686 6.85275 19.5931 6.8521 19.616 6.84503C19.639 6.83795 19.6595 6.82472 19.6755 6.80677C19.7578 6.70595 19.81 6.58389 19.8259 6.4547C19.8418 6.3255 19.8209 6.19444 19.7655 6.07664V6.07702Z" fill="#FF6C37"/>
</svg>
