<svg width="33" height="46" viewBox="0 0 33 46" fill="none" xmlns="http://www.w3.org/2000/svg">
<rect x="0.75" y="6.5" width="32" height="32" rx="16" fill="#F5F5F5"/>
<path d="M23.5 18.2344C24.3438 19.5156 24.7656 20.9375 24.7656 22.5C24.7656 24.6875 23.9688 26.5781 22.375 28.1719C20.8125 29.7344 18.9375 30.5156 16.75 30.5156V33.5156L12.7656 29.4844L16.75 25.5V28.5C18.4062 28.5 19.8125 27.9219 20.9688 26.7656C22.1562 25.5781 22.75 24.1562 22.75 22.5C22.75 21.5625 22.5156 20.625 22.0469 19.6875L23.5 18.2344ZM16.75 16.5C15.0938 16.5 13.6719 17.0938 12.4844 18.2812C11.3281 19.4375 10.75 20.8438 10.75 22.5C10.75 23.5 10.9844 24.4375 11.4531 25.3125L10 26.7656C9.15625 25.4844 8.73438 24.0625 8.73438 22.5C8.73438 20.3125 9.51562 18.4375 11.0781 16.875C12.6719 15.2812 14.5625 14.4844 16.75 14.4844V11.4844L20.7344 15.5156L16.75 19.5V16.5Z" fill="black" fill-opacity="0.87"/>
<rect x="1.25" y="7" width="31" height="31" rx="15.5" stroke="black" stroke-opacity="0.87"/>
</svg>