<svg width="25" height="25" viewBox="0 0 25 25" fill="none" xmlns="http://www.w3.org/2000/svg">
<path fill-rule="evenodd" clip-rule="evenodd" d="M15.5148 18.3432C13.9339 19.3902 12.0382 20 10 20C4.47715 20 0 15.5228 0 10C0 4.47715 4.47715 0 10 0C15.5228 0 20 4.47715 20 10C20 12.0381 19.3903 13.9339 18.3432 15.5147L24.8517 22.0232C25.047 22.2185 25.047 22.5351 24.8517 22.7303L22.7304 24.8516C22.5351 25.0469 22.2185 25.0469 22.0233 24.8516L15.5148 18.3432ZM16.0625 10.0312C16.0625 13.3622 13.3622 16.0625 10.0312 16.0625C6.70028 16.0625 4 13.3622 4 10.0312C4 6.70028 6.70028 4 10.0312 4C13.3622 4 16.0625 6.70028 16.0625 10.0312Z" fill="#0054AE"/>
</svg>
