<svg xmlns="http://www.w3.org/2000/svg" xmlns:xlink="http://www.w3.org/1999/xlink" width="49.335" height="48.208" viewBox="0 0 49.335 48.208">
  <defs>
    <clipPath id="clip-path">
      <rect id="Rectangle_5844" data-name="Rectangle 5844" width="20.167" height="19.717" fill="#168ae0"/>
    </clipPath>
  </defs>
  <g id="Group_13548" data-name="Group 13548" transform="translate(-6862 -3624.538)">
    <rect id="Rectangle_6611" data-name="Rectangle 6611" width="49.335" height="48.208" rx="24.104" transform="translate(6862 3624.538)" fill="#cce4f6"/>
    <path id="Path_7387" data-name="Path 7387" d="M177.467,151.136c0-9.96,7.809-18.034,17.441-18.034h0c9.633,0,17.442,8.074,17.442,18.034h0c0,9.96-7.809,18.034-17.442,18.034h0c-9.632,0-17.441-8.075-17.441-18.034Z" transform="translate(6691.759 3497.506)" fill="#ccf3fa" stroke="#fff" stroke-width="4"/>
    <g id="Group_13547" data-name="Group 13547" transform="translate(6876.584 3638.784)">
      <g id="Group_13211" data-name="Group 13211" clip-path="url(#clip-path)">
        <path id="Path_7227" data-name="Path 7227" d="M53.319,6.7a3.472,3.472,0,0,0,2.813-.963,3.311,3.311,0,0,0,.815-3.484l-1.538,1.5a1.522,1.522,0,0,1-2.114,0,1.445,1.445,0,0,1,0-2.069L54.835.184a3.482,3.482,0,0,0-3.561.8,3.313,3.313,0,0,0-1,2.58,2.187,2.187,0,0,1-.849,1.844C44.731,9.1,39.013,14.114,38.4,14.715a2.524,2.524,0,0,0,0,3.624,2.659,2.659,0,0,0,3.7,0c.623-.61,5.895-6.372,9.684-11.005A1.744,1.744,0,0,1,53.319,6.7m-11.6,10.362a1.455,1.455,0,0,1-1.881,0,1.376,1.376,0,0,1,0-2.1,1.454,1.454,0,0,1,1.881,0,1.376,1.376,0,0,1,0,2.1" transform="translate(-36.97 0.004)" fill="#168ae0"/>
        <path id="Path_7228" data-name="Path 7228" d="M2.686,21.367c.563-.493,1.243-1.083,2-1.732A5.267,5.267,0,0,1,6.134,14.6a5.552,5.552,0,0,1,6.011-1.137c.047-.038.093-.078.136-.12a1.677,1.677,0,0,0,.514-1.3,3.781,3.781,0,0,1,.052-.9,8.045,8.045,0,0,0-1.467-.4L10.91,8.6H9.084l-.47,2.152A7.97,7.97,0,0,0,5.46,12.028l-1.886-1.2L2.282,12.1,3.5,13.942A7.62,7.62,0,0,0,2.2,17.029l-2.2.46v1.788l2.2.46a7.611,7.611,0,0,0,.487,1.631" transform="translate(0 -8.45)" fill="#168ae0"/>
        <path id="Path_7229" data-name="Path 7229" d="M407.456,416.633a4.058,4.058,0,0,1-1.107.03,1.216,1.216,0,0,0-.985.346,1.255,1.255,0,0,0-.093.1l-.178.217a5.265,5.265,0,0,1-1.177,5.846,5.538,5.538,0,0,1-5.1,1.427c-.665.742-1.269,1.409-1.775,1.962a8.034,8.034,0,0,0,1.63.462l.47,2.152h1.827l.47-2.152a7.971,7.971,0,0,0,3.154-1.278l1.886,1.2,1.292-1.264-1.222-1.846a7.62,7.62,0,0,0,1.306-3.086l2.2-.46V418.5l-2.2-.46a7.612,7.612,0,0,0-.4-1.406" transform="translate(-390.057 -409.461)" fill="#168ae0"/>
      </g>
    </g>
  </g>
</svg>
