<svg id="Group_13240" data-name="Group 13240" xmlns="http://www.w3.org/2000/svg" xmlns:xlink="http://www.w3.org/1999/xlink" width="29.653" height="36.267" viewBox="0 0 29.653 36.267">
  <defs>
    <clipPath id="clip-path">
      <rect id="Rectangle_5843" data-name="Rectangle 5843" width="29.653" height="36.267" fill="#168ae0"/>
    </clipPath>
  </defs>
  <g id="Group_13208" data-name="Group 13208" clip-path="url(#clip-path)">
    <path id="Path_7217" data-name="Path 7217" d="M3.768,25.821H6.786v2.318H3.768a1.3,1.3,0,0,0-.827.293.6.6,0,0,0-.049.04h0a1.091,1.091,0,0,0-.364.8V56.131a1.083,1.083,0,0,0,.32.759.563.563,0,0,0,.044.045h0a1.3,1.3,0,0,0,.874.334H25.885a1.3,1.3,0,0,0,.828-.293.6.6,0,0,0,.049-.04h0a1.091,1.091,0,0,0,.364-.8V29.277a1.083,1.083,0,0,0-.32-.759.621.621,0,0,0-.044-.045h0a1.3,1.3,0,0,0-.874-.334H22.867V25.821h3.018a3.934,3.934,0,0,1,2.662,1.015,3.31,3.31,0,0,1,1.106,2.441V56.131a3.31,3.31,0,0,1-1.106,2.441,3.934,3.934,0,0,1-2.662,1.015H3.768a3.934,3.934,0,0,1-2.662-1.015A3.31,3.31,0,0,1,0,56.131V29.277a3.31,3.31,0,0,1,1.106-2.441,3.934,3.934,0,0,1,2.662-1.015" transform="translate(0 -23.32)" fill="#168ae0"/>
    <path id="Path_7218" data-name="Path 7218" d="M82.662,7.32H72.232a2.314,2.314,0,0,1-1.566-.6,1.947,1.947,0,0,1-.651-1.436V2.032A1.947,1.947,0,0,1,70.666.6,2.315,2.315,0,0,1,72.232,0H82.662a2.314,2.314,0,0,1,1.566.6,1.947,1.947,0,0,1,.651,1.436V5.287a1.947,1.947,0,0,1-.651,1.436,2.314,2.314,0,0,1-1.566.6" transform="translate(-62.62 0.001)" fill="#168ae0"/>
    <path id="Path_7219" data-name="Path 7219" d="M51.288,118.344a.56.56,0,1,0,0,1.116h9.953a.56.56,0,1,0,0-1.116Z" transform="translate(-45.327 -106.88)" fill="#168ae0"/>
    <path id="Path_7220" data-name="Path 7220" d="M51.288,177.179a.56.56,0,1,0,0,1.116h9.953a.56.56,0,1,0,0-1.116Z" transform="translate(-45.327 -160.016)" fill="#168ae0"/>
    <path id="Path_7221" data-name="Path 7221" d="M51.288,236.015a.56.56,0,1,0,0,1.116h9.953a.56.56,0,1,0,0-1.116Z" transform="translate(-45.327 -213.153)" fill="#168ae0"/>
    <path id="Path_7222" data-name="Path 7222" d="M51.288,294.85a.56.56,0,1,0,0,1.116h9.953a.56.56,0,1,0,0-1.116Z" transform="translate(-45.327 -266.289)" fill="#168ae0"/>
    <path id="Path_7223" data-name="Path 7223" d="M187.407,162.72h3.054a.585.585,0,0,1,.608.558v2.8a.585.585,0,0,1-.608.558h-3.054a.585.585,0,0,1-.608-.558v-2.8a.585.585,0,0,1,.608-.558" transform="translate(-167.07 -146.958)" fill="#168ae0"/>
    <path id="Path_7224" data-name="Path 7224" d="M187.407,221.555h3.054a.585.585,0,0,1,.608.558v2.8a.585.585,0,0,1-.608.558h-3.054a.585.585,0,0,1-.608-.558v-2.8a.585.585,0,0,1,.608-.558" transform="translate(-167.07 -200.094)" fill="#168ae0"/>
    <path id="Path_7225" data-name="Path 7225" d="M185.093,287.572a.636.636,0,0,0-.827-.2.531.531,0,0,0-.223.758l.8,1.27.525-.277-.527.279a.639.639,0,0,0,.831.2l.035-.02,2.824-1.5a.532.532,0,0,0,.221-.761.638.638,0,0,0-.829-.2l-2.334,1.236Z" transform="translate(-164.533 -259.243)" fill="#168ae0"/>
    <path id="Path_7226" data-name="Path 7226" d="M185.093,111.065a.636.636,0,0,0-.827-.2.531.531,0,0,0-.223.758l.8,1.27.525-.277-.527.279a.639.639,0,0,0,.831.2l.035-.02,2.824-1.5a.532.532,0,0,0,.221-.761.638.638,0,0,0-.829-.2l-2.334,1.236Z" transform="translate(-164.533 -99.833)" fill="#168ae0"/>
  </g>
</svg>
