<svg width="17" height="16" viewBox="0 0 17 16" fill="none" xmlns="http://www.w3.org/2000/svg">
<path d="M6.5 9.25C6.5 9.11193 6.38807 9 6.25 9H2.5C1.94772 9 1.5 9.44772 1.5 10V14C1.5 14.5523 1.94772 15 2.5 15H14.5C15.0523 15 15.5 14.5523 15.5 14V10C15.5 9.44772 15.0523 9 14.5 9H10.75C10.6119 9 10.5 9.11193 10.5 9.25V10.25C10.5 10.3881 10.6119 10.5 10.75 10.5H14V13.5H3V10.5H6.25C6.38807 10.5 6.5 10.3881 6.5 10.25V9.25Z" fill="#B2B3B9"/>
<path d="M9.24924 5H11.2497C11.4725 5 11.5813 4.73291 11.4265 4.57322L8.67601 2.07617C8.57838 1.97854 8.42009 1.97854 8.32246 2.07617L5.57295 4.57322C5.4172 4.73145 5.527 5 5.74973 5H7.74924V10.75C7.74924 10.8881 7.86117 11 7.99924 11H8.99924C9.13731 11 9.24924 10.8881 9.24924 10.75V5Z" fill="#B2B3B9"/>
</svg>
