<svg id="Group_13200" data-name="Group 13200" xmlns="http://www.w3.org/2000/svg" xmlns:xlink="http://www.w3.org/1999/xlink" width="17.309" height="17.741" viewBox="0 0 17.309 17.741">
  <defs>
    <clipPath id="clip-path">
      <rect id="Rectangle_5838" data-name="Rectangle 5838" width="17.309" height="17.741" fill="#707070"/>
    </clipPath>
  </defs>
  <g id="Group_13199" data-name="Group 13199" clip-path="url(#clip-path)">
    <path id="Path_7208" data-name="Path 7208" d="M99.236,9.246a4.6,4.6,0,0,0,4.558-4.623,4.558,4.558,0,1,0-9.115,0,4.6,4.6,0,0,0,4.558,4.623" transform="translate(-90.581)" fill="#707070"/>
    <path id="Path_7209" data-name="Path 7209" d="M9.749,244.2h0a3.584,3.584,0,0,1-2.188,0,3.578,3.578,0,0,0-1.786-.1A6.669,6.669,0,0,0,0,250.325a.684.684,0,0,0,.677.739H16.63a.684.684,0,0,0,.677-.739,6.669,6.669,0,0,0-5.773-6.224,3.578,3.578,0,0,0-1.786.1" transform="translate(0 -233.323)" fill="#707070"/>
  </g>
</svg>
