<svg width="24" height="24" viewBox="0 0 24 24" fill="none" xmlns="http://www.w3.org/2000/svg">
<path fill-rule="evenodd" clip-rule="evenodd" d="M6 3.96792C6 3.83319 6.07146 3.70807 6.19453 3.65323C6.79082 3.38753 8.09767 3.01967 9.75 3C11.0973 2.98396 12.3105 3.36701 13.5 3.75C14.7037 4.13755 15.8837 4.50175 17.25 4.5C18.669 4.49818 19.8075 4.19159 20.4434 3.97102C20.7052 3.8802 21 4.0729 21 4.35003V14.0564C21 14.2032 20.9146 14.3357 20.7772 14.3876C20.2763 14.5768 18.969 14.9978 17.25 15C15.8837 15.0018 14.7037 14.6849 13.5 14.2974C12.3105 13.9144 11.0973 13.5313 9.75 13.5474C8.40153 13.5634 7.28315 13.8114 6.59331 14.0464C6.32096 14.1393 6 13.9398 6 13.6521V3.96792ZM13.5 6C12.0298 5.4744 10.8934 5.26379 10.0078 5.25648C9.25939 5.25031 8.69014 5.38933 8.25 5.60611V11.4114C8.32825 11.4015 8.40484 11.3916 8.48006 11.3819C9.06109 11.3069 9.55983 11.2426 10.1016 11.246C10.9601 11.2514 11.9267 11.4269 13.5 12C14.9984 12.5458 16.1775 12.6923 17.0391 12.6798C18.2124 12.6629 18.7969 12.351 18.7969 12.351V6.52216C18.7969 6.52216 18.1029 6.6536 17.0391 6.63303C16.0806 6.6145 14.8219 6.47259 13.5 6Z" fill="#2B2C30"/>
<path d="M3.375 21C3.16789 21 3 20.8321 3 20.625V3.375C3 3.16789 3.16789 3 3.375 3H4.875C5.08211 3 5.25 3.16789 5.25 3.375V20.625C5.25 20.8321 5.08211 21 4.875 21H3.375Z" fill="#2B2C30"/>
</svg>
