<svg width="24" height="24" viewBox="0 0 24 24" fill="none" xmlns="http://www.w3.org/2000/svg">
<path fill-rule="evenodd" clip-rule="evenodd" d="M18.6464 7.21302C18.5063 7.19479 18.3555 7.17328 18.1956 7.14791C17.336 7.01162 16.1591 6.75579 14.9554 6.26832L14.8494 6.22541L14.7484 6.17199C13.5836 5.55619 12.6456 4.82985 11.9997 4.25799C11.3495 4.83264 10.4014 5.56545 9.22229 6.18467L9.12189 6.2374L9.0167 6.27976C7.81913 6.76204 6.65118 7.0148 5.79816 7.14928C5.64294 7.17375 5.4964 7.19457 5.36005 7.21228C5.23915 8.27023 5.13528 10.1283 5.52057 12.1571C6.09547 15.1843 7.7075 18.4487 11.9983 20.2009C16.2809 18.3985 17.8949 15.1242 18.4738 12.1119C18.8614 10.095 18.7627 8.25544 18.6464 7.21302ZM11.4038 22.3859C0.652114 18.2127 3.27321 5.92854 3.30091 5.80534C3.39645 5.37977 3.75922 5.07459 4.18153 5.06339C4.18192 5.06338 4.1826 5.06335 4.18357 5.06331C4.26176 5.06014 6.21897 4.98085 8.17618 4.19265C10.0662 3.20011 11.257 1.845 11.275 1.824C11.4467 1.62381 11.689 1.51322 11.9507 1.50342C11.9555 1.50342 11.9607 1.50272 11.9659 1.50202C11.9711 1.50132 11.9763 1.50062 11.9811 1.50062C11.9859 1.49966 11.9914 1.50002 11.9961 1.50034C11.9982 1.50049 12.0002 1.50062 12.0019 1.50062C12.0037 1.50062 12.0056 1.50048 12.0075 1.50033C12.0118 1.50002 12.0166 1.49967 12.0213 1.50062C12.027 1.50062 12.0324 1.50137 12.0375 1.50209C12.0424 1.50277 12.0471 1.50342 12.0518 1.50342C12.3135 1.51322 12.5558 1.62381 12.7275 1.8254C12.7441 1.845 13.9252 3.19171 15.7999 4.18285C17.7689 4.98025 19.7501 5.06166 19.8247 5.06472L19.8264 5.06479C20.2501 5.07599 20.6115 5.38117 20.7071 5.80534C20.7361 5.92854 23.3171 18.105 12.6001 22.3859C12.3841 22.4713 11.9382 22.5931 11.4038 22.3859ZM11.0259 3.29749C11.0221 3.29313 11.0183 3.28874 11.0145 3.28431C11.0177 3.28798 11.0215 3.29238 11.0259 3.29749Z" fill="#2B2C30"/>
</svg>
