<svg width="24" height="24" viewBox="0 0 24 24" fill="none" xmlns="http://www.w3.org/2000/svg">
<path d="M21.3259 1.62448C21.1794 1.47804 20.942 1.47804 20.7956 1.62448L12.029 10.3911L8.9011 7.26324C8.885 7.23531 8.86502 7.20902 8.84115 7.18515L7.78049 6.12448C7.63404 5.97804 7.3966 5.97804 7.25016 6.12448L1.62448 11.7502C1.47804 11.8966 1.47804 12.134 1.62448 12.2805L2.68514 13.3412C2.83159 13.4876 3.06903 13.4876 3.21547 13.3412L7.50625 9.05037L11.7552 13.2993C11.8011 13.3452 11.8559 13.3767 11.9141 13.3938C12.0447 13.4376 12.1946 13.4074 12.2986 13.3034L22.3866 3.21547C22.533 3.06903 22.533 2.83159 22.3866 2.68514L21.3259 1.62448Z" fill="#2B2C30"/>
<path d="M2.25 22.5C2.04289 22.5 1.875 22.3321 1.875 22.125V16.875C1.875 16.6678 2.04289 16.5 2.25 16.5H3.75C3.95711 16.5 4.125 16.6678 4.125 16.875V22.125C4.125 22.3321 3.95711 22.5 3.75 22.5H2.25Z" fill="#2B2C30"/>
<path d="M10.875 22.125C10.875 22.3321 11.0429 22.5 11.25 22.5H12.75C12.9571 22.5 13.125 22.3321 13.125 22.125V16.875C13.125 16.6678 12.9571 16.5 12.75 16.5H11.25C11.0429 16.5 10.875 16.6678 10.875 16.875V22.125Z" fill="#2B2C30"/>
<path d="M15.75 22.5C15.5429 22.5 15.375 22.3321 15.375 22.125V13.875C15.375 13.6678 15.5429 13.5 15.75 13.5H17.25C17.4571 13.5 17.625 13.6678 17.625 13.875V22.125C17.625 22.3321 17.4571 22.5 17.25 22.5H15.75Z" fill="#2B2C30"/>
<path d="M6.375 22.125C6.375 22.3321 6.54289 22.5 6.75 22.5H8.25C8.45711 22.5 8.625 22.3321 8.625 22.125V13.875C8.625 13.6678 8.45711 13.5 8.25 13.5H6.75C6.54289 13.5 6.375 13.6678 6.375 13.875V22.125Z" fill="#2B2C30"/>
<path d="M20.25 22.5C20.0429 22.5 19.875 22.3321 19.875 22.125V9.37495C19.875 9.16785 20.0429 8.99995 20.25 8.99995H21.75C21.9571 8.99995 22.125 9.16785 22.125 9.37495V22.125C22.125 22.3321 21.9571 22.5 21.75 22.5H20.25Z" fill="#2B2C30"/>
</svg>
