<svg width="24" height="24" viewBox="0 0 24 24" fill="none" xmlns="http://www.w3.org/2000/svg">
<path fill-rule="evenodd" clip-rule="evenodd" d="M19.0966 22.0235C19.3468 21.7555 19.5 21.3956 19.5 21V6L15 1.5H3.375C3.16789 1.5 3 1.66789 3 1.875V21C3 21.3956 3.15316 21.7555 3.40342 22.0235C3.6772 22.3167 4.0672 22.5 4.5 22.5H18C18.4328 22.5 18.8228 22.3167 19.0966 22.0235ZM13.5 6V3.75H5.25V20.25H17.25V7.5H15C14.5858 7.5 14.2108 7.33211 13.9394 7.06067C13.6679 6.78922 13.5 6.41422 13.5 6Z" fill="#2B2C30"/>
</svg>
