<svg width="24" height="24" viewBox="0 0 24 24" fill="none" xmlns="http://www.w3.org/2000/svg">
<path d="M16.1102 10.5H13.1249V1.875C13.1249 1.66789 12.957 1.5 12.7499 1.5H11.2499C11.0428 1.5 10.8749 1.66789 10.8749 1.875V10.5H7.88962C7.55553 10.5 7.38822 10.9039 7.62446 11.1402L11.7348 14.8901C11.8812 15.0366 12.1186 15.0366 12.2651 14.8901L16.3754 11.1402C16.6116 10.9039 16.4443 10.5 16.1102 10.5Z" fill="#2B2C30"/>
<path d="M5.84467 13.5C5.94413 13.5 6.03951 13.5395 6.10984 13.6098L7.60984 15.1098C7.84607 15.3461 7.67876 15.75 7.34467 15.75H3.75V20.25H20.25V15.75H16.6553C16.3212 15.75 16.1539 15.3461 16.3902 15.1098L17.8902 13.6098C17.9605 13.5395 18.0559 13.5 18.1553 13.5H21C21.8284 13.5 22.5 14.1716 22.5 15V21C22.5 21.8284 21.8284 22.5 21 22.5H3C2.17157 22.5 1.5 21.8284 1.5 21V15C1.5 14.1716 2.17157 13.5 3 13.5H5.84467Z" fill="#2B2C30"/>
</svg>
