<svg width="24" height="24" viewBox="0 0 24 24" fill="none" xmlns="http://www.w3.org/2000/svg">
<path fill-rule="evenodd" clip-rule="evenodd" d="M1.5 16.5C1.5 17.7427 2.00369 18.8677 2.81806 19.682C3.63239 20.4963 4.75738 21 6 21H16.5C18.1568 21 19.6568 20.3285 20.7426 19.2427C21.8284 18.1569 22.5 16.6569 22.5 15C22.5 13.3187 21.8084 11.7988 20.6942 10.7095C19.955 9.98677 19.0298 9.45353 17.9971 9.18828C17.999 9.12576 18 9.06299 18 9C18 7.31866 17.3084 5.79883 16.1942 4.70948C15.1125 3.65187 13.6324 3 12 3C10.3432 3 8.84319 3.67155 7.75741 4.75731C6.67159 5.8431 6 7.34312 6 9C6 9.25405 6.01579 9.50441 6.04644 9.75016C6.15165 10.5937 6.43198 11.3829 6.84989 12.0801C6.57467 12.0275 6.29055 12 6 12C5.44748 12 4.91821 12.0996 4.42917 12.2818C3.81836 12.5093 3.2703 12.8657 2.81806 13.318C2.00369 14.1323 1.5 15.2573 1.5 16.5ZM4.40903 14.909C4.81866 14.4994 5.37806 14.25 6 14.25C7.58941 14.25 10.9688 14.25 10.9688 14.25L8.77979 10.9234C8.44375 10.3628 8.25 9.70744 8.25 9C8.25 7.96383 8.66728 7.0294 9.34838 6.34832C10.0295 5.66726 10.9639 5.25 12 5.25C13.021 5.25 13.9429 5.65507 14.6213 6.31831C15.3204 7.0018 15.75 7.94871 15.75 9C15.75 9.03986 15.7494 9.07952 15.7482 9.11897L15.6927 10.9194L17.4374 11.3675C18.0787 11.5323 18.6569 11.8643 19.1213 12.3183C19.8204 13.0018 20.25 13.9487 20.25 15C20.25 16.0362 19.8327 16.9706 19.1516 17.6517C18.4705 18.3327 17.5361 18.75 16.5 18.75H6C5.37806 18.75 4.81866 18.5006 4.40903 18.091C3.99938 17.6814 3.75 17.122 3.75 16.5C3.75 15.8781 3.99938 15.3186 4.40903 14.909Z" fill="black"/>
</svg>
