<svg width="24" height="24" viewBox="0 0 24 24" fill="none" xmlns="http://www.w3.org/2000/svg">
<path fill-rule="evenodd" clip-rule="evenodd" d="M16.5 12C16.5 14.4853 14.4853 16.5 12 16.5C9.51472 16.5 7.5 14.4853 7.5 12C7.5 9.51472 9.51472 7.5 12 7.5C14.4853 7.5 16.5 9.51472 16.5 12ZM14.2031 12C14.2031 13.2168 13.2168 14.2031 12 14.2031C10.7832 14.2031 9.79688 13.2168 9.79688 12C9.79688 10.7832 10.7832 9.79688 12 9.79688C13.2168 9.79688 14.2031 10.7832 14.2031 12Z" fill="#2B2C30"/>
<path fill-rule="evenodd" clip-rule="evenodd" d="M9 20.4879C8.69891 20.3815 8.40517 20.2595 8.11975 20.1229L6.45299 21.7896C4.68437 20.7854 3.21464 19.3156 2.21035 17.547L3.87711 15.8802C3.74053 15.5948 3.61854 15.3011 3.51212 15H1.15442C0.890824 14.0449 0.75 13.0389 0.75 12C0.75 10.9611 0.890824 9.95508 1.15442 9H3.51212C3.61854 8.69891 3.74053 8.40517 3.87711 8.11975L2.21035 6.45299C3.21464 4.68437 4.68438 3.21464 6.45299 2.21035L8.11975 3.87711C8.40517 3.74053 8.69891 3.61854 9 3.51212V1.15442C9.95508 0.890824 10.9611 0.75 12 0.75C13.0389 0.75 14.0449 0.890824 15 1.15442V3.51212C15.3011 3.61854 15.5948 3.74053 15.8802 3.87711L17.547 2.21035C19.3156 3.21464 20.7854 4.68438 21.7896 6.45299L20.1229 8.11975C20.2595 8.40517 20.3815 8.69891 20.4879 9H22.8456C23.1092 9.95508 23.25 10.9611 23.25 12C23.25 13.0389 23.1092 14.0449 22.8456 15H20.4879C20.3815 15.3011 20.2595 15.5948 20.1229 15.8802L21.7896 17.547C20.7854 19.3156 19.3156 20.7854 17.547 21.7896L15.8802 20.1229C15.5948 20.2595 15.3011 20.3815 15 20.4879V22.8456C14.0449 23.1092 13.0389 23.25 12 23.25C10.9611 23.25 9.95508 23.1092 9 22.8456L9 20.4879ZM5.12768 17.8117C5.45127 18.1938 5.80616 18.5487 6.18833 18.8723L7.6547 17.406L9.09101 18.0933C9.30475 18.1956 9.52458 18.2869 9.7498 18.3665L11.25 18.8967L11.25 20.9693C11.497 20.9896 11.7471 21 12 21C12.2529 21 12.503 20.9896 12.75 20.9693V18.8967L14.2502 18.3665C14.4754 18.2869 14.6953 18.1956 14.909 18.0933L16.3453 17.406L17.8117 18.8723C18.1938 18.5487 18.5487 18.1938 18.8723 17.8117L17.406 16.3453L18.0933 14.909C18.1956 14.6953 18.2869 14.4754 18.3665 14.2502L18.8967 12.75H20.9693C20.9896 12.503 21 12.2529 21 12C21 11.7471 20.9896 11.497 20.9693 11.25H18.8967L18.3665 9.7498C18.2869 9.52458 18.1956 9.30474 18.0933 9.09102L17.406 7.6547L18.8723 6.18834C18.5487 5.80616 18.1938 5.45127 17.8117 5.12768L16.3453 6.59404L14.909 5.90668C14.6953 5.8044 14.4754 5.71311 14.2502 5.63351L12.75 5.10326V3.03068C12.503 3.01037 12.2529 3 12 3C11.7471 3 11.497 3.01037 11.25 3.03068V5.10326L9.7498 5.63351C9.52458 5.71311 9.30475 5.8044 9.09101 5.90668L7.6547 6.59404L6.18834 5.12768C5.80616 5.45127 5.45127 5.80616 5.12768 6.18834L6.59404 7.6547L5.90668 9.09101C5.8044 9.30475 5.71311 9.52458 5.63351 9.7498L5.10326 11.25H3.03068C3.01037 11.497 3 11.7471 3 12C3 12.2529 3.01037 12.503 3.03068 12.75H5.10326L5.63351 14.2502C5.71311 14.4754 5.8044 14.6953 5.90668 14.909L6.59404 16.3453L5.12768 17.8117Z" fill="#2B2C30"/>
</svg>
