<svg width="24" height="24" viewBox="0 0 24 24" fill="none" xmlns="http://www.w3.org/2000/svg">
<path fill-rule="evenodd" clip-rule="evenodd" d="M12.932 14.25L14.25 15.568V14.25H18.75V5.25H5.25V14.25H12.932ZM16.5 21L12 16.5H4.5C4.08579 16.5 3.7108 16.3321 3.43935 16.0607C3.1679 15.7892 3 15.4142 3 15V4.5C3 4.08578 3.1679 3.71078 3.43935 3.43933C3.7108 3.16789 4.08579 3 4.5 3L19.5 3C19.9081 3 20.2781 3.16297 20.5486 3.42737C20.8271 3.69971 21 4.07966 21 4.5V15C21 15.4142 20.8321 15.7892 20.5606 16.0607C20.2892 16.3321 19.9142 16.5 19.5 16.5H16.5V21Z" fill="#2B2C30"/>
</svg>
