<svg width="24" height="24" viewBox="0 0 24 24" fill="none" xmlns="http://www.w3.org/2000/svg">
<path d="M11.9999 7.5C11.9999 9.15685 10.6568 10.5 8.99994 10.5C7.34308 10.5 5.99994 9.15685 5.99994 7.5C5.99994 5.84315 7.34308 4.5 8.99994 4.5C10.6568 4.5 11.9999 5.84315 11.9999 7.5Z" fill="#2B2C30"/>
<path d="M16.1249 19.5C16.332 19.5 16.4999 19.3321 16.4999 19.125C16.4998 18.7176 16.4999 18.3101 16.4999 17.9027L16.4999 17.2969C16.4999 16.8788 16.2807 16.5586 16.0599 16.2361C16.0346 16.1991 16.0093 16.1621 15.9843 16.125L13.3124 12.5625C13.0042 12.193 12.4692 12 11.9999 12H6.00226C5.5317 12 4.96869 12.1875 4.68744 12.5625L2.01556 16.125C1.75241 16.4631 1.49994 16.9219 1.49994 17.2969L1.49994 19.125C1.49994 19.3321 1.66783 19.5 1.87494 19.5H16.1249Z" fill="#2B2C30"/>
<path d="M19.5 9.75C19.5 10.9926 18.4927 12 17.25 12C16.0074 12 15 10.9926 15 9.75C15 8.50736 16.0074 7.5 17.25 7.5C18.4927 7.5 19.5 8.50736 19.5 9.75Z" fill="#2B2C30"/>
<path d="M22.2188 19.5H18C17.9998 18.8945 17.9999 18.2889 18 17.6834L18 16.7344C18 16.3594 17.7277 15.9709 17.4844 15.6562L15.8438 13.5H18.8438C19.1723 13.5 19.4842 13.6278 19.7344 13.9219L22.125 16.7812C22.3239 17.014 22.5 17.3273 22.5 17.625L22.5 18.1491C22.5 18.5064 22.4999 18.8663 22.5 19.2188C22.5 19.3831 22.3828 19.5 22.2188 19.5Z" fill="#2B2C30"/>
</svg>
